<svg width="30" height="30" viewBox="0 0 30 30" fill="none" xmlns="http://www.w3.org/2000/svg">
<path d="M19.9693 10.1337C19.0929 9.56389 18.4634 8.6495 18.2653 7.58589C18.2219 7.35254 18.1974 7.11649 18.1974 6.875H15.4028L15.3973 18.0729C15.3512 19.3264 14.3174 20.333 13.0531 20.333C12.6597 20.333 12.2906 20.2354 11.965 20.0644C11.2162 19.671 10.7061 18.8869 10.7061 17.986C10.7061 16.6917 11.7588 15.6362 13.0558 15.6362C13.2973 15.6362 13.5306 15.677 13.7477 15.7448V13.5551V12.8931C13.5198 12.8632 13.2891 12.8416 13.0558 12.8416C10.2204 12.8416 7.91406 15.1479 7.91406 17.9832C7.91406 19.7225 8.78233 21.2636 10.1091 22.1944C10.9448 22.7804 11.9596 23.125 13.0558 23.125C15.8912 23.125 18.1974 20.8187 18.1974 17.9832V12.3043C19.2937 13.0911 20.6368 13.5551 22.0857 13.5551V11.3845V10.7632C21.3042 10.7605 20.5771 10.5298 19.9693 10.1337Z" fill="#D9D9D9"/>
</svg>
