<svg width="140" height="40" viewBox="0 0 140 40" fill="none" xmlns="http://www.w3.org/2000/svg">
<g clip-path="url(#clip0_4_7330)">
<g clip-path="url(#clip1_4_7330)">
<path d="M132.5 0H7.5C4.73858 0 2.5 2.23858 2.5 5V35C2.5 37.7614 4.73858 40 7.5 40H132.5C135.261 40 137.5 37.7614 137.5 35V5C137.5 2.23858 135.261 0 132.5 0Z" fill="black"/>
<path d="M132.5 0.8C133.614 0.8 134.682 1.2425 135.47 2.03015C136.258 2.8178 136.7 3.88609 136.7 5V35C136.7 36.1139 136.258 37.1822 135.47 37.9698C134.682 38.7575 133.614 39.2 132.5 39.2H7.5C6.38609 39.2 5.3178 38.7575 4.53015 37.9698C3.7425 37.1822 3.3 36.1139 3.3 35V5C3.3 3.88609 3.7425 2.8178 4.53015 2.03015C5.3178 1.2425 6.38609 0.8 7.5 0.8H132.5ZM132.5 0H7.5C6.17392 0 4.90215 0.526784 3.96447 1.46447C3.02678 2.40215 2.5 3.67392 2.5 5V35C2.5 36.3261 3.02678 37.5979 3.96447 38.5355C4.90215 39.4732 6.17392 40 7.5 40H132.5C133.826 40 135.098 39.4732 136.036 38.5355C136.973 37.5979 137.5 36.3261 137.5 35V5C137.5 3.67392 136.973 2.40215 136.036 1.46447C135.098 0.526784 133.826 0 132.5 0Z" fill="#A6A6A6"/>
<path d="M49.9201 10.2405C49.9371 10.6073 49.8794 10.9737 49.7505 11.3175C49.6215 11.6613 49.4241 11.9753 49.1701 12.2405C48.8865 12.5351 48.544 12.7666 48.165 12.92C47.7859 13.0733 47.3788 13.1451 46.9701 13.1305C46.3501 13.1256 45.7453 12.9379 45.2315 12.5909C44.7177 12.2438 44.3178 11.7528 44.0818 11.1794C43.8458 10.606 43.7843 9.97573 43.905 9.36755C44.0257 8.75937 44.3231 8.20032 44.7601 7.76046C45.0473 7.46725 45.3916 7.23608 45.7718 7.08128C46.1519 6.92647 46.5598 6.85132 46.9701 6.86046C47.3929 6.85905 47.8115 6.94413 48.2001 7.11046C48.562 7.25642 48.8841 7.48602 49.1401 7.78046L48.6101 8.31046C48.4105 8.07306 48.1585 7.88532 47.8738 7.7621C47.5892 7.63888 47.2798 7.58354 46.9701 7.60046C46.6578 7.59893 46.3483 7.66049 46.0603 7.78145C45.7723 7.90241 45.5117 8.08028 45.2942 8.3044C45.0766 8.52852 44.9065 8.79426 44.7941 9.08571C44.6817 9.37715 44.6293 9.68829 44.6401 10.0005C44.6336 10.4666 44.7652 10.9243 45.0184 11.3157C45.2717 11.7071 45.6352 12.0147 46.063 12.1998C46.4909 12.3848 46.964 12.439 47.4227 12.3555C47.8813 12.272 48.3049 12.0545 48.6401 11.7305C48.9478 11.397 49.1253 10.964 49.1401 10.5105H46.9701V9.79046H49.8801C49.9068 9.93898 49.9202 10.0896 49.9201 10.2405ZM54.5001 7.74046H51.8001V9.64046H54.2601V10.3605H51.8001V12.2605H54.5001V13.0005H51.0001V7.00046H54.5001V7.74046ZM57.7801 13.0005H57.0101V7.74046H55.3301V7.00046H59.5001V7.74046H57.7801V13.0005ZM62.4401 13.0005V7.00046H63.2101V13.0005H62.4401ZM66.6301 13.0005H65.8601V7.74046H64.1801V7.00046H68.3001V7.74046H66.6301V13.0005ZM76.1101 12.2205C75.5255 12.8018 74.7346 13.1282 73.9101 13.1282C73.0857 13.1282 72.2947 12.8018 71.7101 12.2205C71.1419 11.619 70.8253 10.8229 70.8253 9.99546C70.8253 9.16802 71.1419 8.37194 71.7101 7.77046C71.9983 7.48021 72.341 7.24984 72.7186 7.09263C73.0962 6.93543 73.5011 6.85449 73.9101 6.85449C74.3191 6.85449 74.7241 6.93543 75.1016 7.09263C75.4792 7.24984 75.822 7.48021 76.1101 7.77046C76.6806 8.37079 76.9987 9.16731 76.9987 9.99546C76.9987 10.8237 76.6806 11.6202 76.1101 12.2205ZM72.2801 11.7205C72.713 12.1516 73.2991 12.3937 73.9101 12.3937C74.5211 12.3937 75.1072 12.1516 75.5401 11.7205C75.9674 11.2495 76.204 10.6364 76.204 10.0005C76.204 9.36457 75.9674 8.75144 75.5401 8.28046C75.1072 7.84934 74.5211 7.60729 73.9101 7.60729C73.2991 7.60729 72.713 7.84934 72.2801 8.28046C71.8529 8.75144 71.6162 9.36457 71.6162 10.0005C71.6162 10.6364 71.8529 11.2495 72.2801 11.7205ZM78.0801 13.0005V7.00046H79.0201L81.9401 11.6705V7.00046H82.7101V13.0005H81.9101L78.8601 8.11046V13.0005H78.0801Z" fill="white" stroke="white" stroke-width="0.2" stroke-miterlimit="10"/>
<path d="M70.64 21.7501C69.8003 21.754 68.9806 22.0067 68.2843 22.4761C67.588 22.9454 67.0464 23.6106 66.7278 24.3875C66.4092 25.1644 66.3279 26.0183 66.4941 26.8414C66.6604 27.6645 67.0667 28.4199 67.6619 29.0123C68.257 29.6047 69.0143 30.0075 69.8382 30.1698C70.6621 30.3322 71.5156 30.2469 72.291 29.9246C73.0664 29.6024 73.729 29.0576 74.1951 28.3592C74.6612 27.6607 74.91 26.8398 74.91 26.0001C74.9182 25.438 74.8131 24.8801 74.6012 24.3594C74.3892 23.8388 74.0747 23.3661 73.6763 22.9696C73.2778 22.5731 72.8037 22.2607 72.2821 22.0512C71.7605 21.8417 71.202 21.7393 70.64 21.7501ZM70.64 28.5801C70.1236 28.6162 69.6082 28.4961 69.161 28.2355C68.7137 27.9748 68.3552 27.5856 68.132 27.1185C67.9089 26.6514 67.8314 26.128 67.9097 25.6162C67.988 25.1045 68.2184 24.6282 68.571 24.2491C68.9236 23.8701 69.382 23.6059 69.8868 23.4909C70.3915 23.3759 70.9192 23.4153 71.4012 23.6042C71.8832 23.793 72.2973 24.1225 72.5895 24.5498C72.8818 24.9771 73.0387 25.4824 73.04 26.0001C73.0561 26.3281 73.0064 26.656 72.8937 26.9645C72.7811 27.273 72.6078 27.5558 72.3841 27.7963C72.1605 28.0367 71.8909 28.23 71.5914 28.3646C71.2918 28.4992 70.9683 28.5725 70.64 28.5801ZM61.33 21.7501C60.4899 21.7521 59.6692 22.003 58.9716 22.4712C58.274 22.9394 57.7308 23.6038 57.4107 24.3806C57.0905 25.1574 57.0078 26.0116 57.1729 26.8353C57.338 27.6591 57.7436 28.4154 58.3383 29.0088C58.9331 29.6022 59.6904 30.006 60.5145 30.1692C61.3387 30.3323 62.1927 30.2476 62.9687 29.9256C63.7447 29.6037 64.4079 29.0589 64.8744 28.3602C65.341 27.6615 65.59 26.8402 65.59 26.0001C65.5982 25.438 65.4931 24.8801 65.2812 24.3594C65.0692 23.8388 64.7547 23.3661 64.3563 22.9696C63.9578 22.5731 63.4837 22.2607 62.9621 22.0512C62.4405 21.8417 61.882 21.7393 61.32 21.7501H61.33ZM61.33 28.5801C60.8133 28.6182 60.2971 28.5 59.8486 28.2407C59.4001 27.9813 59.0401 27.593 58.8154 27.1262C58.5906 26.6594 58.5117 26.1357 58.5887 25.6234C58.6658 25.1111 58.8952 24.6339 59.2473 24.2538C59.5994 23.8737 60.0577 23.6085 60.5627 23.4925C61.0676 23.3766 61.5958 23.4154 62.0784 23.6038C62.561 23.7922 62.9757 24.1216 63.2685 24.549C63.5613 24.9764 63.7186 25.482 63.72 26.0001C63.7361 26.3281 63.6864 26.656 63.5737 26.9645C63.4611 27.273 63.2878 27.5558 63.0641 27.7963C62.8405 28.0367 62.5709 28.23 62.2714 28.3646C61.9718 28.4992 61.6483 28.5725 61.32 28.5801H61.33ZM50.24 23.0601V24.8601H54.56C54.4923 25.7079 54.1399 26.5079 53.56 27.1301C53.1278 27.5703 52.6082 27.9152 52.0347 28.1426C51.4612 28.3699 50.8464 28.4747 50.23 28.4501C48.957 28.4501 47.7361 27.9444 46.8359 27.0442C45.9357 26.144 45.43 24.9231 45.43 23.6501C45.43 22.3771 45.9357 21.1562 46.8359 20.256C47.7361 19.3558 48.957 18.8501 50.23 18.8501C51.4478 18.8302 52.6238 19.2941 53.5 20.1401L54.77 18.8701C54.1785 18.2711 53.4728 17.797 52.6946 17.4758C51.9165 17.1545 51.0818 16.9928 50.24 17.0001C49.351 16.9655 48.4642 17.1107 47.6326 17.4271C46.8011 17.7434 46.042 18.2244 45.4008 18.8411C44.7596 19.4578 44.2494 20.1977 43.901 21.0163C43.5526 21.8349 43.373 22.7154 43.373 23.6051C43.373 24.4948 43.5526 25.3753 43.901 26.1939C44.2494 27.0125 44.7596 27.7523 45.4008 28.3691C46.042 28.9858 46.8011 29.4668 47.6326 29.7831C48.4642 30.0995 49.351 30.2447 50.24 30.2101C51.096 30.2488 51.9503 30.1037 52.7454 29.7846C53.5406 29.4655 54.2582 28.9797 54.85 28.3601C55.8977 27.209 56.4571 25.6959 56.41 24.1401C56.4132 23.7611 56.3797 23.3826 56.31 23.0101L50.24 23.0601ZM95.55 24.4601C95.2892 23.6928 94.8015 23.0229 94.1515 22.5389C93.5015 22.055 92.7198 21.7799 91.91 21.7501C91.363 21.749 90.8216 21.8602 90.3192 22.0766C89.8169 22.2931 89.3643 22.6103 88.9894 23.0086C88.6145 23.407 88.3253 23.8779 88.1396 24.3925C87.954 24.907 87.8759 25.4542 87.91 26.0001C87.8979 26.559 87.9985 27.1146 88.2059 27.6338C88.4133 28.1529 88.7232 28.625 89.1171 29.0217C89.5111 29.4184 89.9808 29.7316 90.4985 29.9427C91.0161 30.1537 91.571 30.2583 92.13 30.2501C92.8295 30.2539 93.519 30.0841 94.1368 29.756C94.7547 29.4279 95.2814 28.9517 95.67 28.3701L94.22 27.3701C94.0036 27.7309 93.6972 28.0293 93.3309 28.2361C92.9645 28.443 92.5507 28.5512 92.13 28.5501C91.6968 28.5666 91.2687 28.4524 90.9013 28.2223C90.534 27.9923 90.2443 27.657 90.07 27.2601L95.76 24.9101L95.55 24.4601ZM89.75 25.8801C89.7297 25.5708 89.7714 25.2605 89.8725 24.9675C89.9737 24.6745 90.1322 24.4046 90.339 24.1737C90.5457 23.9427 90.7965 23.7554 91.0765 23.6225C91.3566 23.4897 91.6604 23.4141 91.97 23.4001C92.2926 23.3788 92.6143 23.4528 92.8952 23.6128C93.1761 23.7728 93.4039 24.0118 93.55 24.3001L89.75 25.8801ZM85.13 30.0001H87V17.5001H85.13V30.0001ZM82.07 22.7001H82C81.7182 22.385 81.3729 22.133 80.9869 21.9607C80.6009 21.7883 80.1828 21.6995 79.76 21.7001C78.6672 21.7531 77.6367 22.2245 76.882 23.0167C76.1273 23.8088 75.7063 24.861 75.7063 25.9551C75.7063 27.0492 76.1273 28.1014 76.882 28.8935C77.6367 29.6857 78.6672 30.1571 79.76 30.2101C80.1838 30.2172 80.6039 30.1314 80.991 29.9586C81.378 29.7858 81.7224 29.5303 82 29.2101H82.06V29.8201C82.06 31.4501 81.19 32.3201 79.79 32.3201C79.3237 32.3092 78.8712 32.1598 78.4901 31.8909C78.1091 31.622 77.8166 31.2457 77.65 30.8101L76.02 31.4901C76.3268 32.2365 76.8496 32.8741 77.5213 33.3213C78.1931 33.7686 78.9831 34.0049 79.79 34.0001C81.98 34.0001 83.79 32.7101 83.79 29.5701V22.0001H82.07V22.7001ZM79.93 28.5801C79.285 28.5232 78.6846 28.2268 78.2473 27.7493C77.81 27.2717 77.5674 26.6476 77.5674 26.0001C77.5674 25.3525 77.81 24.7285 78.2473 24.2509C78.6846 23.7734 79.285 23.4769 79.93 23.4201C80.2498 23.4365 80.5631 23.5168 80.8515 23.6561C81.1398 23.7955 81.3973 23.9912 81.6089 24.2316C81.8204 24.472 81.9817 24.7524 82.0832 25.0561C82.1847 25.3598 82.2244 25.6808 82.2 26.0001C82.2273 26.3208 82.1893 26.6437 82.0882 26.9492C81.9871 27.2548 81.8251 27.5367 81.612 27.7779C81.3988 28.0191 81.139 28.2145 80.8482 28.3524C80.5574 28.4903 80.2416 28.5677 79.92 28.5801H79.93ZM104.31 17.5001H99.84V30.0001H101.71V25.2601H104.32C104.853 25.2984 105.388 25.2265 105.892 25.0488C106.396 24.8712 106.858 24.5916 107.249 24.2276C107.64 23.8636 107.952 23.4228 108.165 22.9329C108.379 22.443 108.489 21.9144 108.489 21.3801C108.489 20.8458 108.379 20.3172 108.165 19.8273C107.952 19.3374 107.64 18.8966 107.249 18.5326C106.858 18.1686 106.396 17.889 105.892 17.7114C105.388 17.5337 104.853 17.4618 104.32 17.5001H104.31ZM104.31 23.5001H101.7V19.2401H104.35C104.919 19.2401 105.464 19.4661 105.867 19.8684C106.269 20.2706 106.495 20.8162 106.495 21.3851C106.495 21.954 106.269 22.4996 105.867 22.9018C105.464 23.3041 104.919 23.5301 104.35 23.5301L104.31 23.5001ZM115.84 21.7001C115.159 21.6594 114.481 21.8185 113.89 22.1578C113.298 22.4971 112.819 23.0019 112.51 23.6101L114.17 24.3001C114.334 23.9984 114.582 23.7509 114.883 23.5875C115.185 23.4242 115.528 23.3521 115.87 23.3801C116.107 23.3524 116.348 23.3722 116.578 23.4384C116.807 23.5046 117.021 23.6159 117.208 23.7658C117.394 23.9157 117.548 24.1011 117.662 24.3113C117.776 24.5215 117.846 24.7523 117.87 24.9901V25.1201C117.269 24.8021 116.6 24.6372 115.92 24.6401C114.13 24.6401 112.32 25.6401 112.32 27.4501C112.338 27.836 112.433 28.2145 112.599 28.5631C112.765 28.9118 113 29.2235 113.289 29.4799C113.578 29.7363 113.916 29.9321 114.282 30.0558C114.648 30.1795 115.035 30.2286 115.42 30.2001C115.891 30.2339 116.362 30.1403 116.785 29.9292C117.207 29.7181 117.565 29.3971 117.82 29.0001H117.88V30.0001H119.68V25.1901C119.68 23.0001 118.02 21.7301 115.89 21.7301L115.84 21.7001ZM115.61 28.5501C115 28.5501 114.15 28.2401 114.15 27.4901C114.15 26.4901 115.21 26.1601 116.15 26.1601C116.744 26.1454 117.331 26.2905 117.85 26.5801C117.787 27.1215 117.531 27.6221 117.129 27.9896C116.727 28.3571 116.205 28.5668 115.66 28.5801L115.61 28.5501ZM126.24 22.0001L124.1 27.4201H124.04L121.82 22.0001H119.82L123.15 29.5801L121.25 33.7901H123.2L128.32 22.0001H126.24ZM109.43 30.0001H111.3V17.5001H109.43V30.0001Z" fill="white"/>
<path d="M12.9402 7.53973C12.6143 7.93084 12.4497 8.43153 12.4801 8.93973V31.0597C12.4497 31.5679 12.6143 32.0686 12.9402 32.4597L13.0102 32.5297L25.4002 20.1497V19.8597L13.0102 7.46973L12.9402 7.53973Z" fill="url(#paint0_linear_4_7330)"/>
<path d="M29.5004 24.2797L25.4004 20.1497V19.8597L29.5004 15.7197L29.5904 15.7697L34.5004 18.5597C35.9004 19.3497 35.9004 20.6497 34.5004 21.4497L29.6104 24.2297L29.5004 24.2797Z" fill="url(#paint1_linear_4_7330)"/>
<path d="M29.6204 24.22L25.4004 20L12.9404 32.46C13.2258 32.7109 13.5898 32.8541 13.9696 32.8651C14.3494 32.876 14.7211 32.754 15.0204 32.52L29.6304 24.22" fill="url(#paint2_linear_4_7330)"/>
<path d="M29.6197 15.7796L15.0097 7.47956C14.7103 7.24558 14.3387 7.12351 13.9589 7.13447C13.5791 7.14543 13.2151 7.28871 12.9297 7.53956L25.3997 19.9996L29.6197 15.7796Z" fill="url(#paint3_linear_4_7330)"/>
<path opacity="0.2" d="M29.5004 24.1299L15.0104 32.3799C14.7217 32.5958 14.3709 32.7124 14.0104 32.7124C13.6499 32.7124 13.2991 32.5958 13.0104 32.3799L12.9404 32.4499L13.0104 32.5199C13.2985 32.7373 13.6495 32.8549 14.0104 32.8549C14.3713 32.8549 14.7223 32.7373 15.0104 32.5199L29.6204 24.2199L29.5004 24.1299Z" fill="black"/>
<path opacity="0.12" d="M12.9402 32.32C12.6143 31.9289 12.4497 31.4282 12.4801 30.92V31.07C12.4497 31.5782 12.6143 32.0789 12.9402 32.47L13.0102 32.4L12.9402 32.32ZM34.5002 21.3L29.5002 24.13L29.5902 24.22L34.5002 21.44C34.7788 21.3091 35.0179 21.1071 35.1935 20.8543C35.3691 20.6014 35.4749 20.3068 35.5002 20C35.444 20.2787 35.3246 20.5408 35.1512 20.7662C34.9779 20.9915 34.7551 21.1742 34.5002 21.3Z" fill="black"/>
<path opacity="0.25" d="M15.0097 7.62043L34.4997 18.7004C34.7547 18.8262 34.9774 19.0089 35.1507 19.2342C35.3241 19.4596 35.4435 19.7217 35.4997 20.0004C35.4744 19.6936 35.3686 19.399 35.193 19.1461C35.0175 18.8933 34.7783 18.6913 34.4997 18.5604L15.0097 7.48043C13.6097 6.69043 12.4697 7.35043 12.4697 8.95043V9.10043C12.4997 7.49043 13.6197 6.83043 15.0097 7.62043Z" fill="white"/>
</g>
</g>
<defs>
<linearGradient id="paint0_linear_4_7330" x1="24.3002" y1="8.70973" x2="7.52014" y2="25.4897" gradientUnits="userSpaceOnUse">
<stop stop-color="#00A0FF"/>
<stop offset="0.01" stop-color="#00A1FF"/>
<stop offset="0.26" stop-color="#00BEFF"/>
<stop offset="0.51" stop-color="#00D2FF"/>
<stop offset="0.76" stop-color="#00DFFF"/>
<stop offset="1" stop-color="#00E3FF"/>
</linearGradient>
<linearGradient id="paint1_linear_4_7330" x1="36.3304" y1="19.9997" x2="12.1404" y2="19.9997" gradientUnits="userSpaceOnUse">
<stop stop-color="#FFE000"/>
<stop offset="0.41" stop-color="#FFBD00"/>
<stop offset="0.78" stop-color="#FFA500"/>
<stop offset="1" stop-color="#FF9C00"/>
</linearGradient>
<linearGradient id="paint2_linear_4_7330" x1="27.3304" y1="22.3" x2="4.57043" y2="45.05" gradientUnits="userSpaceOnUse">
<stop stop-color="#FF3A44"/>
<stop offset="1" stop-color="#C31162"/>
</linearGradient>
<linearGradient id="paint3_linear_4_7330" x1="9.79968" y1="0.179561" x2="19.9597" y2="10.3396" gradientUnits="userSpaceOnUse">
<stop stop-color="#32A071"/>
<stop offset="0.07" stop-color="#2DA771"/>
<stop offset="0.48" stop-color="#15CF74"/>
<stop offset="0.8" stop-color="#06E775"/>
<stop offset="1" stop-color="#00F076"/>
</linearGradient>
<clipPath id="clip0_4_7330">
<rect width="140" height="40" fill="white"/>
</clipPath>
<clipPath id="clip1_4_7330">
<rect width="135" height="40" fill="white" transform="translate(2.5)"/>
</clipPath>
</defs>
</svg>
