<svg width="30" height="30" viewBox="0 0 30 30" fill="none" xmlns="http://www.w3.org/2000/svg">
<path d="M27.5 7.40507C26.5801 7.81301 25.5916 8.08872 24.5541 8.21271C25.6131 7.57791 26.4264 6.57275 26.8094 5.3751C25.8184 5.96282 24.7206 6.38969 23.5524 6.61975C22.6166 5.62293 21.2838 5 19.8085 5C16.9759 5 14.6792 7.29645 14.6792 10.1289C14.6792 10.5309 14.7247 10.9224 14.8121 11.2978C10.5494 11.0839 6.77009 9.04194 4.24037 5.93886C3.79887 6.69639 3.54594 7.57745 3.54594 8.51741C3.54594 10.2968 4.45151 11.8668 5.82775 12.7865C4.98692 12.7599 4.19611 12.5291 3.50451 12.145C3.50415 12.1664 3.50415 12.1879 3.50415 12.2095C3.50415 14.6946 5.27214 16.7676 7.61851 17.2388C7.18809 17.356 6.73497 17.4186 6.26715 17.4186C5.93666 17.4186 5.61532 17.3865 5.30222 17.3266C5.95486 19.3644 7.84904 20.8472 10.0935 20.8886C8.33809 22.2642 6.1265 23.0842 3.72353 23.0842C3.30956 23.0842 2.90126 23.06 2.5 23.0126C4.76984 24.4679 7.46589 25.317 10.3624 25.317C19.7965 25.317 24.9555 17.5015 24.9555 10.7237C24.9555 10.5013 24.9505 10.2801 24.9406 10.0602C25.9427 9.33702 26.8124 8.43365 27.5 7.40507Z" fill="#D9D9D9"/>
</svg>
