<svg width="11" height="10" viewBox="0 0 11 10" fill="none" xmlns="http://www.w3.org/2000/svg">
<path fill-rule="evenodd" clip-rule="evenodd" d="M2.05514 1.83887C1.60724 1.83887 1.24414 2.20196 1.24414 2.64987V7.51586C1.24414 7.96378 1.60724 8.32686 2.05514 8.32686H6.11014C6.55805 8.32686 6.92113 7.96378 6.92113 7.51586V6.37515C6.92113 6.34275 6.95722 6.32341 6.98419 6.34137L8.7237 7.50106C8.9932 7.68074 9.35413 7.48756 9.35413 7.16369V3.00205C9.35413 2.67818 8.9932 2.485 8.7237 2.66465L6.98419 3.82434C6.95722 3.8423 6.92113 3.82299 6.92113 3.7906V2.64987C6.92113 2.20196 6.55805 1.83887 6.11014 1.83887H2.05514Z" fill="#707070"/>
</svg>
