<svg width="41" height="41" viewBox="0 0 41 41" fill="none" xmlns="http://www.w3.org/2000/svg">
<g clip-path="url(#clip0_2_2422)">
<g clip-path="url(#clip1_2_2422)">
<g clip-path="url(#clip2_2_2422)">
<path d="M20.5 0C22.387 0 23.9167 1.5297 23.9167 3.41667V17.0833H37.5833C39.4703 17.0833 41 18.613 41 20.5C41 22.387 39.4703 23.9167 37.5833 23.9167H23.9167V37.5833C23.9167 39.4703 22.387 41 20.5 41C18.613 41 17.0833 39.4703 17.0833 37.5833V23.9167H3.41667C1.5297 23.9167 0 22.387 0 20.5C0 18.613 1.5297 17.0833 3.41667 17.0833H17.0833V3.41667C17.0833 1.5297 18.613 0 20.5 0Z" fill="#008294"/>
</g>
</g>
</g>
<defs>
<clipPath id="clip0_2_2422">
<rect width="41" height="41" fill="white"/>
</clipPath>
<clipPath id="clip1_2_2422">
<rect width="41" height="41" fill="white"/>
</clipPath>
<clipPath id="clip2_2_2422">
<rect width="41" height="41" fill="white"/>
</clipPath>
</defs>
</svg>
