<svg width="41" height="41" viewBox="0 0 41 41" fill="none" xmlns="http://www.w3.org/2000/svg">
<g clip-path="url(#clip0_2_2412)">
<g clip-path="url(#clip1_2_2412)">
<g clip-path="url(#clip2_2_2412)">
<path d="M16.2694 0.650391C24.8956 0.650391 31.8885 7.64328 31.8885 16.2694C31.8885 19.6418 30.8197 22.7644 29.0026 25.3172L40.7763 37.0949L37.0949 40.7763L25.3172 29.0026C22.7644 30.8197 19.6418 31.8885 16.2694 31.8885C7.64328 31.8885 0.650391 24.8956 0.650391 16.2694C0.650391 7.64328 7.64328 0.650391 16.2694 0.650391ZM16.2694 5.85674C10.5187 5.85674 5.85674 10.5187 5.85674 16.2694C5.85674 22.0202 10.5187 26.6821 16.2694 26.6821C22.0202 26.6821 26.6821 22.0202 26.6821 16.2694C26.6821 10.5187 22.0202 5.85674 16.2694 5.85674Z" fill="#008294"/>
</g>
</g>
</g>
<defs>
<clipPath id="clip0_2_2412">
<rect width="41" height="41" fill="white"/>
</clipPath>
<clipPath id="clip1_2_2412">
<rect width="41" height="41" fill="white"/>
</clipPath>
<clipPath id="clip2_2_2412">
<rect width="41" height="41" fill="white"/>
</clipPath>
</defs>
</svg>
