<svg width="20" height="20" viewBox="0 0 20 20" fill="none" xmlns="http://www.w3.org/2000/svg">
<path fill-rule="evenodd" clip-rule="evenodd" d="M10.0003 17.0837C13.9123 17.0837 17.0837 13.9123 17.0837 10.0003C17.0837 6.08831 13.9123 2.91699 10.0003 2.91699C6.08831 2.91699 2.91699 6.08831 2.91699 10.0003C2.91699 13.9123 6.08831 17.0837 10.0003 17.0837ZM10.0003 18.3337C14.6027 18.3337 18.3337 14.6027 18.3337 10.0003C18.3337 5.39795 14.6027 1.66699 10.0003 1.66699C5.39795 1.66699 1.66699 5.39795 1.66699 10.0003C1.66699 14.6027 5.39795 18.3337 10.0003 18.3337Z" fill="#707070"/>
<path fill-rule="evenodd" clip-rule="evenodd" d="M15.4419 7.05806C15.686 7.30213 15.686 7.69786 15.4419 7.94194L9.65916 13.7247C8.92691 14.4569 7.73974 14.457 7.00751 13.7247L4.55806 11.2752C4.31398 11.0312 4.31398 10.6355 4.55806 10.3914C4.80213 10.1473 5.19786 10.1473 5.44194 10.3914L7.89139 12.8408C8.13546 13.0849 8.53116 13.0849 8.77525 12.8408L14.5581 7.05806C14.8022 6.81398 15.1978 6.81398 15.4419 7.05806Z" fill="#707070"/>
</svg>
