<svg width="23" height="23" viewBox="0 0 23 23" fill="none" xmlns="http://www.w3.org/2000/svg">
<path fill-rule="evenodd" clip-rule="evenodd" d="M13.5205 3.79967C14.2364 3.0837 15.3972 3.0837 16.1132 3.79967L17.4096 5.09603C18.1256 5.81199 18.1256 6.97279 17.4096 7.68875L16.1132 8.98511L12.2242 5.09603L13.5205 3.79967ZM11.5759 5.74419L15.465 9.63328L7.9553 17.143C7.78339 17.3149 7.55024 17.4115 7.30712 17.4115H4.25607C4.00293 17.4115 3.79773 17.2062 3.79773 16.9531V13.9021C3.79773 13.6589 3.8943 13.4258 4.06622 13.2539L11.5759 5.74419ZM4.37402 18.5449C3.99433 18.5449 3.68652 18.8527 3.68652 19.2324C3.68652 19.6122 3.99433 19.9199 4.37402 19.9199H17.6657C18.0454 19.9199 18.3532 19.6122 18.3532 19.2324C18.3532 18.8527 18.0454 18.5449 17.6657 18.5449H4.37402Z" fill="#00798A"/>
</svg>
