<svg width="20" height="20" viewBox="0 0 20 20" fill="none" xmlns="http://www.w3.org/2000/svg">
<path fill-rule="evenodd" clip-rule="evenodd" d="M15.8333 4.58301H4.16667C3.93655 4.58301 3.75 4.76956 3.75 4.99967V15.833C3.75 16.0631 3.93655 16.2497 4.16667 16.2497H15.8333C16.0634 16.2497 16.25 16.0631 16.25 15.833V4.99967C16.25 4.76956 16.0634 4.58301 15.8333 4.58301ZM4.16667 3.33301C3.24619 3.33301 2.5 4.0792 2.5 4.99967V15.833C2.5 16.7535 3.24619 17.4997 4.16667 17.4997H15.8333C16.7538 17.4997 17.5 16.7535 17.5 15.833V4.99967C17.5 4.0792 16.7538 3.33301 15.8333 3.33301H4.16667Z" fill="#707070"/>
<path d="M5 2.50033C5 2.04009 5.3731 1.66699 5.83333 1.66699C6.29357 1.66699 6.66667 2.04009 6.66667 2.50033V3.33366C6.66667 3.79389 6.29357 4.16699 5.83333 4.16699C5.3731 4.16699 5 3.79389 5 3.33366V2.50033Z" fill="#707070"/>
<path d="M13.333 2.50033C13.333 2.04009 13.7061 1.66699 14.1663 1.66699C14.6266 1.66699 14.9997 2.04009 14.9997 2.50033V3.33366C14.9997 3.79389 14.6266 4.16699 14.1663 4.16699C13.7061 4.16699 13.333 3.79389 13.333 3.33366V2.50033Z" fill="#707070"/>
<path fill-rule="evenodd" clip-rule="evenodd" d="M15 7.29199C15 7.63717 14.7202 7.91699 14.375 7.91699H5.625C5.27983 7.91699 5 7.63717 5 7.29199C5 6.94682 5.27983 6.66699 5.625 6.66699H14.375C14.7202 6.66699 15 6.94682 15 7.29199Z" fill="#707070"/>
</svg>
