<svg width="21" height="20" viewBox="0 0 21 20" fill="none" xmlns="http://www.w3.org/2000/svg">
<path fill-rule="evenodd" clip-rule="evenodd" d="M13.4938 4.99967C14.1107 4.99967 14.6493 4.66451 14.9375 4.16634H16.8271C17.2874 4.16634 17.6605 4.53944 17.6605 4.99967V6.77136C16.2228 7.14139 15.1605 8.44651 15.1605 9.99967C15.1605 11.5528 16.2228 12.8579 17.6605 13.228V14.9997C17.6605 15.4599 17.2874 15.833 16.8271 15.833H14.9375C14.6493 15.3348 14.1107 14.9997 13.4938 14.9997C12.8769 14.9997 12.3383 15.3348 12.0501 15.833H3.49382C3.03358 15.833 2.66048 15.4599 2.66048 14.9997V13.228C4.09817 12.8579 5.16048 11.5528 5.16048 9.99967C5.16048 8.44651 4.09817 7.14139 2.66048 6.77136V4.99967C2.66048 4.53944 3.03358 4.16634 3.49382 4.16634H12.0501C12.3383 4.66451 12.8769 4.99967 13.4938 4.99967ZM15.9938 9.99967C15.9938 8.61892 17.1131 7.49967 18.4938 7.49967V4.99967C18.4938 4.0792 17.7476 3.33301 16.8271 3.33301H14.3271C14.3271 3.79324 13.9541 4.16634 13.4938 4.16634C13.0336 4.16634 12.6605 3.79324 12.6605 3.33301H3.49382C2.57334 3.33301 1.82715 4.0792 1.82715 4.99967V7.49967C3.20786 7.49967 4.32715 8.61892 4.32715 9.99967C4.32715 11.3804 3.20786 12.4997 1.82715 12.4997V14.9997C1.82715 15.9202 2.57334 16.6663 3.49382 16.6663H12.6605C12.6605 16.2061 13.0336 15.833 13.4938 15.833C13.9541 15.833 14.3271 16.2061 14.3271 16.6663H16.8271C17.7476 16.6663 18.4938 15.9202 18.4938 14.9997V12.4997C17.1131 12.4997 15.9938 11.3804 15.9938 9.99967ZM13.4938 7.49967C13.9541 7.49967 14.3271 7.12658 14.3271 6.66634C14.3271 6.20611 13.9541 5.83301 13.4938 5.83301C13.0336 5.83301 12.6605 6.20611 12.6605 6.66634C12.6605 7.12658 13.0336 7.49967 13.4938 7.49967ZM13.4938 10.833C13.9541 10.833 14.3271 10.4599 14.3271 9.99967C14.3271 9.53942 13.9541 9.16634 13.4938 9.16634C13.0336 9.16634 12.6605 9.53942 12.6605 9.99967C12.6605 10.4599 13.0336 10.833 13.4938 10.833ZM14.3271 13.333C14.3271 13.7933 13.9541 14.1663 13.4938 14.1663C13.0336 14.1663 12.6605 13.7933 12.6605 13.333C12.6605 12.8728 13.0336 12.4997 13.4938 12.4997C13.9541 12.4997 14.3271 12.8728 14.3271 13.333Z" fill="#707070"/>
</svg>
