<svg width="21" height="20" viewBox="0 0 21 20" fill="none" xmlns="http://www.w3.org/2000/svg">
<g clip-path="url(#clip0_2_2362)">
<g clip-path="url(#clip1_2_2362)">
<path fill-rule="evenodd" clip-rule="evenodd" d="M12.3128 18.3063C11.7287 18.4332 11.1221 18.5 10.5 18.5C9.8517 18.5 9.22034 18.4274 8.61362 18.2899L7.82814 15.7803L8.76671 14.1547H12.2985L13.06 15.9188L12.3128 18.3063ZM14.0691 17.7166C14.807 17.3748 15.4876 16.9302 16.0925 16.4012L14.4975 16.3479L14.0691 17.7166ZM17.4146 14.9446C18.2858 13.7286 18.8441 12.2732 18.9719 10.6961L16.6987 8.95736L14.8645 9.45598L13.6265 13.4464L14.2273 14.838L17.4146 14.9446ZM18.9103 8.76047C18.7803 7.87102 18.5126 7.02628 18.1295 6.2486L17.646 7.79343L18.9103 8.76047ZM17.0712 4.60804L16.1498 7.55216L14.4263 8.02065L11.3119 5.65083V3.87196L13.7491 2.14306C15.051 2.68205 16.1899 3.53522 17.0712 4.60804ZM11.9011 1.61492L10.685 2.47764L9.4852 1.55995C9.81795 1.52036 10.1566 1.5 10.5 1.5C10.9772 1.5 11.4453 1.53933 11.9011 1.61492ZM7.89409 0.342926C7.31595 0.49847 6.75832 0.704392 6.22662 0.955974C5.10584 1.48645 4.09987 2.21945 3.25498 3.10724L3.25364 3.10729C2.80425 3.57948 2.40055 4.09555 2.04961 4.64842L2.051 4.64837C1.0688 6.19581 0.5 8.03148 0.5 10C0.5 10.0577 0.500489 10.1153 0.501462 10.1727L0.5 10.1738C0.510166 10.7709 0.572653 11.3552 0.683073 11.9223L0.684391 11.9213C0.914448 13.1035 1.35276 14.2112 1.95958 15.2048L1.95802 15.2049C2.2765 15.7264 2.64141 16.2164 3.04699 16.6693L3.04859 16.6692C4.21639 17.9731 5.72139 18.9686 7.42648 19.5188C7.97174 19.6947 8.5377 19.8256 9.11939 19.9059C9.57072 19.9682 10.0315 20 10.5 20C16.0228 20 20.5 15.5228 20.5 10C20.5 4.47715 16.0228 0 10.5 0C9.59853 0 8.72492 0.119283 7.89409 0.342926ZM6.85063 17.6789L6.49847 16.5538L5.14222 16.5992C5.664 17.0233 6.23704 17.3868 6.85063 17.6789ZM3.73375 15.1454L6.51639 15.0523L7.52893 13.2986L6.35618 9.5184L4.4823 9.0163L2.04506 10.8805C2.20904 12.4739 2.81314 13.9367 3.73375 15.1454ZM2.06055 8.9802L3.3494 7.99436L3.34972 7.99317L2.82986 6.33223C2.43769 7.15088 2.17272 8.04206 2.06055 8.9802ZM3.88052 4.66732L4.78068 7.54334L6.71952 8.06285L9.81194 5.70974V3.69837L7.60096 2.0072C6.12853 2.54137 4.84564 3.47083 3.88052 4.66732ZM12.3016 12.6547H9.30111L8.81211 12.3723L7.80391 9.12258L10.6006 6.99447L13.3974 9.12258L12.3016 12.6547Z" fill="#008294"/>
</g>
</g>
<defs>
<clipPath id="clip0_2_2362">
<rect width="20" height="20" fill="white" transform="translate(0.5)"/>
</clipPath>
<clipPath id="clip1_2_2362">
<rect width="20" height="20" fill="white" transform="translate(0.5)"/>
</clipPath>
</defs>
</svg>
