<svg width="21" height="20" viewBox="0 0 21 20" fill="none" xmlns="http://www.w3.org/2000/svg">
<g clip-path="url(#clip0_2_2368)">
<path fill-rule="evenodd" clip-rule="evenodd" d="M12.4851 15.6191C13.2281 14.133 13.729 11.9799 13.729 9.52372C13.729 6.50381 11.8472 3.73955 10.489 2.16396C10.4633 2.1341 10.4423 2.12176 10.4303 2.11627C10.4173 2.11032 10.4058 2.10826 10.3956 2.10826C10.3855 2.10826 10.3739 2.11032 10.3609 2.11627C10.349 2.12176 10.328 2.1341 10.3022 2.16396C8.94405 3.73955 7.0623 6.50381 7.0623 9.52372C7.0623 11.9799 7.56313 14.133 8.30621 15.6191C9.09201 17.1908 9.91328 17.619 10.3956 17.619C10.8779 17.619 11.6993 17.1908 12.4851 15.6191ZM15.15 9.16145C15.7191 9.03235 16.2808 8.95477 16.8096 8.91208C17.1918 7.50276 17.1335 5.98761 16.9683 4.82781C16.9636 4.79541 16.955 4.78018 16.9516 4.77497C16.9476 4.76879 16.944 4.7658 16.9413 4.76407C16.9385 4.76234 16.9342 4.76033 16.927 4.75937C16.9208 4.75856 16.9033 4.75724 16.872 4.76698C16.1223 5.00054 15.2489 5.34596 14.4205 5.83447C14.2432 5.37977 14.042 4.94301 13.8266 4.52747C14.7544 3.99736 15.6918 3.63835 16.4472 3.40305C17.3534 3.12076 18.2488 3.68676 18.3826 4.62639C18.542 5.74589 18.6329 7.31004 18.2897 8.87237C18.3307 8.87338 18.3711 8.87457 18.411 8.87589C19.3596 8.9074 20.019 9.73648 19.8363 10.6678C19.503 12.3665 18.6751 14.9963 16.6417 16.6135C14.5237 18.2982 12.2049 19.1849 10.5008 19.1115C8.79663 19.1849 6.47784 18.2982 4.35976 16.6135C2.32648 14.9963 1.49853 12.3665 1.16525 10.6678C0.982516 9.73648 1.64195 8.9074 2.59054 8.87589C2.63044 8.87457 2.67088 8.87338 2.71184 8.87237C2.36871 7.31004 2.45951 5.74589 2.61894 4.62639C2.75277 3.68676 3.64823 3.12076 4.5544 3.40305C5.26558 3.6246 6.13826 3.95584 7.01236 4.43633C6.79466 4.84909 6.59063 5.28333 6.40973 5.73579C5.63322 5.29902 4.82774 4.98449 4.12951 4.76698C4.09826 4.75724 4.08077 4.75856 4.0746 4.75937C4.06732 4.76033 4.06306 4.76234 4.06032 4.76407C4.05757 4.7658 4.05393 4.76879 4.04994 4.77497C4.04655 4.78018 4.03786 4.79541 4.03325 4.82781C3.86807 5.98761 3.80968 7.50276 4.19197 8.91208C4.65611 8.94956 5.1456 9.0139 5.64317 9.11638C5.79962 5.73196 7.8642 2.80427 9.22018 1.23122C9.85408 0.495843 10.9372 0.495842 11.5711 1.23122C12.9331 2.81124 15.0099 5.75797 15.15 9.16145ZM13.3485 16.9958C14.3132 15.4688 14.9753 13.2103 15.1252 10.6391C16.254 10.3349 17.4198 10.2723 18.3636 10.3037C18.3963 10.3048 18.4123 10.3117 18.4179 10.3146C18.4245 10.3178 18.4278 10.3211 18.4298 10.3237C18.4318 10.3262 18.4343 10.3303 18.436 10.3374C18.4376 10.3434 18.4408 10.3607 18.4344 10.3928C18.1183 12.004 17.3745 14.2053 15.7525 15.4955C14.9371 16.1441 14.1172 16.6407 13.3485 16.9958ZM7.35394 16.8517C6.67347 16.5104 5.95956 16.0607 5.24903 15.4955C3.62704 14.2053 2.88321 12.004 2.5671 10.3928C2.56079 10.3607 2.56399 10.3434 2.56547 10.3374C2.5672 10.3303 2.56967 10.3262 2.57169 10.3237C2.57371 10.3211 2.57707 10.3178 2.58363 10.3146C2.58919 10.3117 2.60527 10.3048 2.63797 10.3037C3.52236 10.2743 4.60174 10.3273 5.66293 10.5845C5.80224 13.0985 6.43081 15.3173 7.35394 16.8517Z" fill="#31775A"/>
</g>
<defs>
<clipPath id="clip0_2_2368">
<rect width="20" height="20" fill="white" transform="translate(0.5)"/>
</clipPath>
</defs>
</svg>
