<svg width="95" height="34" viewBox="0 0 95 34" fill="none" xmlns="http://www.w3.org/2000/svg">
<g clip-path="url(#clip0_2_6144)">
<path fill-rule="evenodd" clip-rule="evenodd" d="M94.3349 19.8614C94.3221 19.7279 94.2906 19.5969 94.2414 19.4721C93.9269 18.6545 92.4957 19.4169 92.007 19.6217C91.1273 19.9906 90.121 20.4768 89.147 20.198C88.8776 20.1206 88.9566 19.8911 89.147 19.7739C89.2422 19.7161 91.7435 18.3009 92.4795 15.1646C93.6575 10.1474 90.0428 8.75178 88.6167 8.58264C87.1667 8.41095 85.5494 8.63449 84.8677 8.90902C82.9359 9.68502 82.4319 11.4104 82.2984 12.4439C82.1157 13.865 82.0945 16.3452 81.9185 17.4612C81.8029 18.1964 81.2556 19.3123 80.1779 19.2061C78.0982 19.0013 77.1429 18.2032 77.2092 16.8925C77.2551 15.9712 77.2423 15.7876 77.5322 13.7444C77.7812 11.9935 77.9384 11.5761 77.9384 11.1758C77.9384 10.0292 76.3975 9.79806 75.8825 10.314C75.4847 10.7126 75.3853 11.526 75.2858 12.8995C75.1924 14.1906 74.9943 15.8701 74.7385 16.8942C74.3407 18.4896 74.181 18.606 73.818 19.0625C73.0642 20.011 71.6712 19.7169 70.9912 19.0701C70.5918 18.6893 70.5374 18.3519 70.6147 17.2342C70.6921 16.1165 70.8748 14.1693 71.1315 12.1388C71.355 10.3624 71.2012 10.0955 70.6555 9.59747C70.1481 9.1334 68.2044 9.20225 67.3043 9.20225C65.9113 9.20225 65.9946 9.86521 65.9028 12.1261C65.8629 13.1128 65.817 14.6104 65.7184 15.7698C65.5586 17.6566 61.9576 19.076 60.3019 18.9911C58.586 18.9027 58.4211 15.6992 58.3131 14.9538C58.2035 14.2093 58.1602 7.78029 58.3454 7.56186C58.4772 7.40887 59.5098 7.29158 60.6869 7.06124C63.2936 6.55127 63.6684 6.2164 63.6718 5.40045C63.6735 5.00013 63.648 4.44001 63.2044 4.28957C62.9443 4.20118 62.2695 4.10088 61.3745 3.99549C58.7933 3.69121 58.4296 3.78471 58.4151 3.45748C58.3905 2.88461 58.4449 1.78224 58.399 1.34792C58.2868 0.280386 57.0357 -0.0782905 55.6266 0.0152033C55.3487 0.0330521 54.9636 0.123146 54.9331 0.495422C54.9025 0.868547 54.905 1.15583 54.86 1.78734C54.7605 3.19059 54.7325 3.34273 54.1885 3.34018C53.7041 3.33763 49.6738 2.98151 48.8995 3.22969C48.1244 3.47788 48.1559 4.00569 48.0938 4.27002C48.0318 4.53351 48.1703 6.11695 48.2485 6.80031C48.3259 7.48281 48.4754 8.4118 48.5681 8.55119C48.6616 8.69143 48.9522 9.08751 49.7614 8.98636C52.51 8.64214 54.3432 8.22651 54.7155 8.13387C55.0869 8.04038 55.1294 7.99363 55.1336 8.28856C55.1353 8.456 55.205 11.8124 55.2169 12.8094C55.2365 14.5144 55.5246 19.4534 50.93 20.2192C49.0185 20.538 47.2269 19.9812 46.4119 19.0828C45.9495 18.5729 46.1764 18.5066 46.3804 18.1751C46.6898 17.6711 49.2718 14.6376 47.1079 11.4911C45.8322 9.63487 42.7725 9.48783 41.6617 9.96975C40.8008 10.3429 40.1047 11.4996 39.9704 12.9106C39.5556 17.2623 42.0459 19.954 42.1428 20.1198C42.2583 20.3187 41.8232 20.9595 40.3019 21.1822C38.2621 21.4814 35.1302 19.0208 35.2109 18.7004C35.2508 18.5474 36.6379 16.2755 36.671 14.0801C36.6821 13.333 36.4356 12.3496 35.9248 11.356C35.4132 10.3624 33.8034 8.82912 32.0611 9.1657C27.9612 9.95615 28.4286 14.007 28.7125 15.1128C29.3023 17.3991 30.6834 19.4169 30.9087 19.8206C31.2155 20.3688 22.2336 23.9335 21.886 20.5966C21.5401 17.2886 26.4509 10.1559 26.0642 7.38847C25.7157 4.89558 24.0397 4.37372 22.5821 4.34822C21.1653 4.32272 20.7913 4.5488 20.312 4.82759C20.0358 4.98823 19.6388 5.30611 19.0881 4.78084C18.7218 4.43151 18.4796 4.18673 18.092 3.8765C17.8957 3.71926 17.5812 3.51952 17.0543 3.44218C16.5273 3.36483 15.8457 3.44218 15.4122 3.62832C14.9788 3.8153 14.6371 4.14083 14.281 4.45106C13.9241 4.76129 13.0206 5.77612 12.1783 5.40215C11.8129 5.23981 10.5746 4.6202 9.68215 4.23348C7.95769 3.48552 5.47085 4.6967 4.5759 6.29119C3.24239 8.66423 0.611917 17.9864 0.21416 19.2154C-0.679946 21.9761 1.34454 24.2267 4.077 24.0975C5.23118 24.0423 6.00035 23.6199 6.72957 22.2905C7.15112 21.523 11.1117 11.1588 11.4058 10.6625C11.6199 10.3012 12.3322 9.82611 12.9356 10.1355C13.5407 10.4466 13.6606 11.0942 13.5713 11.7036C13.4269 12.6896 10.6341 19.0132 10.527 19.728C10.3442 20.9451 10.9213 21.6216 12.1817 21.6879C13.0452 21.733 13.9062 21.4219 14.5895 20.1308C14.972 19.4092 19.3754 10.5707 19.7655 9.9808C20.1938 9.33314 20.5389 9.1198 20.9741 9.14275C21.3132 9.15975 21.8546 9.2473 21.7186 10.2638C21.586 11.26 18.0453 17.7459 17.673 19.3336C17.1095 21.7423 18.6513 24.9823 22.781 25.1311C24.8326 25.2058 29.5819 24.31 32.2575 22.2778C33.2289 21.54 32.9722 21.4763 33.5774 22.0135C34.4485 22.7861 36.0651 23.874 37.6569 23.874C41.2716 23.874 43.9114 21.6131 44.0313 21.5315C44.0501 21.5186 44.0729 21.513 44.0956 21.5156C44.1182 21.5183 44.1392 21.5291 44.1545 21.546C44.3738 21.784 46.615 23.0342 48.1856 23.0861C51.9244 23.2093 54.1384 21.1312 54.9747 20.1529C55.4346 19.6147 55.8637 19.0509 56.2598 18.4641C56.2711 18.4474 56.286 18.4334 56.3035 18.4233C56.3209 18.4132 56.3405 18.4072 56.3606 18.4057C56.3807 18.4042 56.4009 18.4074 56.4197 18.4148C56.4384 18.4223 56.4552 18.4339 56.4688 18.4488C56.6924 18.6953 58.3786 21.7993 61.7281 21.3709C63.5962 21.1321 66.3745 19.5529 66.5692 19.3395C66.5791 19.3283 66.5918 19.3199 66.606 19.3152C66.6202 19.3104 66.6354 19.3095 66.65 19.3125C66.6647 19.3155 66.6783 19.3224 66.6895 19.3323C66.7006 19.3423 66.709 19.3551 66.7137 19.3693C66.8114 19.6396 67.2389 21.1627 68.9515 22.3738C70.3555 23.3674 73.0582 23.5663 74.2574 22.9059C75.2518 22.3585 75.6505 22.0084 76.3465 21.3114C76.6457 21.0114 77.1012 20.7079 77.9223 20.8822C78.8402 21.0768 81.2658 21.5069 81.4205 21.5808C81.5947 21.6633 81.6219 21.9803 81.5701 22.3118C81.4868 22.8337 81.2896 24.6627 81.089 26.3703C80.8876 28.0778 80.2442 33.775 81.769 33.9858C82.6903 34.1133 83.49 33.2395 83.7016 32.387C84.232 30.2477 84.3289 27.8398 84.6773 25.7745C85.0938 23.3156 85.2587 22.6263 85.4083 22.3517C85.5323 22.124 85.5323 22.1775 87.25 22.3237C88.4399 22.4257 89.4054 22.5914 90.8392 22.3908C92.0274 22.2242 94.4658 21.3233 94.3349 19.8614ZM34.9287 14.3351C34.8718 15.14 34.6653 15.6499 34.2394 16.3911C33.9734 16.8534 33.6981 16.5075 33.5383 16.2789C33.3088 15.9508 32.1359 13.0967 33.0317 12.5077C33.2842 12.3419 33.7847 12.2467 34.1468 12.4499C34.5089 12.6522 34.7273 12.9471 34.8267 13.276C34.9287 13.6101 34.9661 13.797 34.9287 14.3351ZM46.0557 14.7498C45.9512 15.6763 45.5585 16.2007 45.4141 16.3953C45.1582 16.7387 45.0554 16.8738 44.8106 16.6248C44.6117 16.4225 43.8681 14.9079 43.761 13.9092C43.7023 13.3721 43.8511 12.6046 44.3015 12.4244C44.7758 12.2348 45.256 12.3207 45.5934 12.7618C46.1229 13.4562 46.1305 14.0911 46.0557 14.7498ZM86.4358 18.81C85.8774 19.0395 85.6343 18.8993 85.6666 17.9754C85.6734 17.7765 86.5701 13.1417 88.2844 12.302C88.7705 12.064 89.2635 12.0742 89.6051 12.455C90.2511 13.1749 90.0811 14.2841 89.5949 15.2955C88.8912 16.7634 87.2033 18.4947 86.4358 18.81Z" fill="#F64060"/>
</g>
<defs>
<clipPath id="clip0_2_6144">
<rect width="94.34" height="34" fill="white"/>
</clipPath>
</defs>
</svg>
