<svg width="140" height="40" viewBox="0 0 140 40" fill="none" xmlns="http://www.w3.org/2000/svg">
<g clip-path="url(#clip0_4_7344)">
<g clip-path="url(#clip1_4_7344)">
<path d="M120.303 0.00013H19.7026C19.3359 0.00013 18.9736 0.00013 18.6079 0.00213C18.3018 0.00413 17.9981 0.00994 17.689 0.01483C17.0175 0.0227318 16.3476 0.0818063 15.6851 0.19154C15.0235 0.303663 14.3826 0.515046 13.7842 0.81854C13.1865 1.1246 12.6403 1.5223 12.1655 1.9972C11.6883 2.47077 11.2904 3.01815 10.9873 3.61829C10.6834 4.21724 10.4726 4.85907 10.3623 5.52161C10.251 6.18332 10.1911 6.85265 10.1831 7.52361C10.1738 7.83021 10.1729 8.13783 10.168 8.44447V31.5587C10.1729 31.8692 10.1738 32.17 10.1831 32.4806C10.1911 33.1516 10.251 33.8209 10.3623 34.4825C10.4723 35.1455 10.6831 35.7877 10.9873 36.3868C11.2903 36.985 11.6882 37.5302 12.1655 38.0011C12.6385 38.4781 13.185 38.8761 13.7842 39.1798C14.3826 39.4841 15.0234 39.6968 15.6851 39.8106C16.3477 39.9195 17.0175 39.9786 17.689 39.9874C17.9981 39.9942 18.3018 39.9981 18.6079 39.9981C18.9736 40.0001 19.336 40.0001 19.7026 40.0001H120.303C120.662 40.0001 121.027 40.0001 121.387 39.9981C121.691 39.9981 122.004 39.9942 122.309 39.9874C122.979 39.9791 123.647 39.92 124.309 39.8106C124.972 39.696 125.616 39.4834 126.217 39.1798C126.815 38.8759 127.361 38.478 127.834 38.0011C128.31 37.5284 128.709 36.9836 129.016 36.3868C129.318 35.7872 129.526 35.1451 129.635 34.4825C129.746 33.8208 129.808 33.1516 129.82 32.4806C129.824 32.17 129.824 31.8692 129.824 31.5587C129.832 31.1954 129.832 30.8341 129.832 30.4649V9.53626C129.832 9.17005 129.832 8.80677 129.824 8.44447C129.824 8.13783 129.824 7.83021 129.82 7.52357C129.808 6.85255 129.746 6.18337 129.635 5.52157C129.526 4.85941 129.317 4.21763 129.016 3.61825C128.398 2.41533 127.42 1.43616 126.217 0.81845C125.615 0.515697 124.972 0.30437 124.309 0.19145C123.648 0.0812328 122.979 0.0221378 122.309 0.01469C122.004 0.00981 121.691 0.00395 121.387 0.002C121.027 0 120.662 0.00013 120.303 0.00013Z" fill="#A6A6A6"/>
<path d="M18.6128 39.125C18.3082 39.125 18.0108 39.1211 17.7085 39.1143C17.0823 39.1061 16.4576 39.0516 15.8394 38.9512C15.263 38.8519 14.7046 38.6673 14.1827 38.4033C13.6655 38.1415 13.1938 37.7983 12.7857 37.3867C12.3716 36.98 12.0269 36.5082 11.7652 35.9902C11.5005 35.4688 11.3174 34.9099 11.2222 34.333C11.1193 33.7131 11.0636 33.0863 11.0557 32.458C11.0493 32.2471 11.041 31.5449 11.041 31.5449V8.44434C11.041 8.44434 11.0499 7.75293 11.0557 7.5498C11.0633 6.92248 11.1187 6.29665 11.2212 5.67773C11.3167 5.09925 11.4999 4.53875 11.7647 4.01563C12.0255 3.49794 12.3683 3.02586 12.7798 2.61768C13.1909 2.20562 13.6641 1.8606 14.1822 1.59521C14.7029 1.33209 15.2603 1.14873 15.8355 1.05127C16.4557 0.949836 17.0826 0.894996 17.711 0.88721L18.6133 0.875H121.382L122.295 0.8877C122.918 0.895099 123.539 0.94945 124.153 1.05029C124.734 1.14898 125.298 1.33362 125.824 1.59814C126.862 2.13299 127.707 2.97916 128.239 4.01807C128.5 4.53758 128.68 5.09351 128.774 5.66699C128.878 6.29099 128.936 6.92174 128.948 7.5542C128.951 7.8374 128.951 8.1416 128.951 8.44434C128.959 8.81934 128.959 9.17627 128.959 9.53613V30.4648C128.959 30.8281 128.959 31.1826 128.951 31.54C128.951 31.8652 128.951 32.1631 128.947 32.4697C128.936 33.0909 128.878 33.7104 128.776 34.3232C128.683 34.9043 128.501 35.4675 128.236 35.9932C127.973 36.5056 127.63 36.9733 127.221 37.3789C126.812 37.7927 126.34 38.1379 125.821 38.4014C125.296 38.6674 124.734 38.8527 124.153 38.9512C123.535 39.0522 122.91 39.1067 122.284 39.1143C121.991 39.1211 121.685 39.125 121.387 39.125L120.303 39.127L18.6128 39.125Z" fill="black"/>
<path d="M34.937 20.3013C34.9477 19.4666 35.1694 18.6483 35.5814 17.9223C35.9935 17.1964 36.5824 16.5864 37.2935 16.1492C36.8418 15.5041 36.2458 14.9731 35.553 14.5986C34.8602 14.224 34.0896 14.0162 33.3024 13.9916C31.6231 13.8153 29.9952 14.9964 29.1395 14.9964C28.2672 14.9964 26.9497 14.0091 25.531 14.0383C24.6133 14.0679 23.7189 14.3348 22.9351 14.8128C22.1512 15.2909 21.5045 15.9638 21.058 16.7661C19.124 20.1145 20.5666 25.0356 22.4192 27.7422C23.3461 29.0676 24.4294 30.548 25.8469 30.4955C27.2339 30.438 27.752 29.611 29.4263 29.611C31.085 29.611 31.5711 30.4955 33.0173 30.4621C34.5057 30.438 35.4434 29.1309 36.3378 27.793C37.0038 26.8486 37.5162 25.8049 37.8562 24.7005C36.9915 24.3347 36.2536 23.7226 35.7345 22.9403C35.2153 22.158 34.938 21.2402 34.937 20.3013Z" fill="white"/>
<path d="M32.2055 12.2113C33.0171 11.2371 33.4169 9.98494 33.3201 8.7207C32.0802 8.85092 30.935 9.44348 30.1125 10.3803C29.7103 10.838 29.4023 11.3704 29.2061 11.9472C29.0099 12.524 28.9292 13.1337 28.9688 13.7417C29.5889 13.7481 30.2024 13.6137 30.7631 13.3486C31.3237 13.0835 31.8169 12.6946 32.2055 12.2113Z" fill="white"/>
<path d="M52.4707 27.1397H47.7373L46.6006 30.4961H44.5957L49.0791 18.0781H51.1621L55.6455 30.4961H53.6064L52.4707 27.1397ZM48.2275 25.5908H51.9795L50.1299 20.1436H50.0782L48.2275 25.5908Z" fill="white"/>
<path d="M65.3282 25.9695C65.3282 28.7829 63.8223 30.5905 61.5498 30.5905C60.9742 30.6207 60.4017 30.4881 59.8979 30.2079C59.3941 29.9278 58.9794 29.5114 58.7012 29.0065H58.6582V33.4909H56.7998V21.4421H58.5987V22.948H58.6328C58.9238 22.4455 59.3455 22.0313 59.8532 21.7495C60.3608 21.4676 60.9353 21.3287 61.5157 21.3474C63.8135 21.3474 65.3282 23.1638 65.3282 25.9695ZM63.418 25.9695C63.418 24.1365 62.4707 22.9314 61.0254 22.9314C59.6055 22.9314 58.6504 24.1618 58.6504 25.9695C58.6504 27.7937 59.6055 29.0154 61.0254 29.0154C62.4707 29.0154 63.418 27.8191 63.418 25.9695Z" fill="white"/>
<path d="M75.293 25.9694C75.293 28.7829 73.7871 30.5905 71.5147 30.5905C70.939 30.6206 70.3665 30.488 69.8627 30.2079C69.3589 29.9278 68.9442 29.5114 68.666 29.0065H68.623V33.4909H66.7646V21.4421H68.5635V22.948H68.5976C68.8886 22.4455 69.3103 22.0313 69.818 21.7495C70.3256 21.4676 70.9001 21.3287 71.4805 21.3474C73.7783 21.3474 75.293 23.1638 75.293 25.9694ZM73.3828 25.9694C73.3828 24.1364 72.4356 22.9314 70.9903 22.9314C69.5703 22.9314 68.6153 24.1618 68.6153 25.9694C68.6153 27.7937 69.5703 29.0153 70.9903 29.0153C72.4356 29.0153 73.3828 27.8191 73.3828 25.9694Z" fill="white"/>
<path d="M81.8789 27.0362C82.0166 28.2676 83.2129 29.0762 84.8477 29.0762C86.4141 29.0762 87.541 28.2676 87.541 27.1572C87.541 26.1934 86.8614 25.6162 85.252 25.2207L83.6426 24.833C81.3623 24.2822 80.3037 23.2158 80.3037 21.4854C80.3037 19.3428 82.1709 17.8711 84.8223 17.8711C87.4463 17.8711 89.2451 19.3428 89.3057 21.4854H87.4297C87.3174 20.2461 86.293 19.4981 84.7959 19.4981C83.2988 19.4981 82.2744 20.2549 82.2744 21.3565C82.2744 22.2344 82.9287 22.751 84.5293 23.1465L85.8975 23.4824C88.4453 24.0849 89.5039 25.1084 89.5039 26.9248C89.5039 29.248 87.6533 30.7031 84.71 30.7031C81.9561 30.7031 80.0967 29.2822 79.9766 27.0361L81.8789 27.0362Z" fill="white"/>
<path d="M93.5146 19.2998V21.4424H95.2363V22.9141H93.5146V27.9053C93.5146 28.6807 93.8594 29.042 94.6162 29.042C94.8206 29.0384 95.0247 29.0241 95.2275 28.999V30.4619C94.8873 30.5255 94.5414 30.5543 94.1953 30.5478C92.3623 30.5478 91.6475 29.8593 91.6475 28.1035V22.9141H90.3311V21.4424H91.6474V19.2998H93.5146Z" fill="white"/>
<path d="M96.2334 25.9697C96.2334 23.1211 97.9111 21.3311 100.527 21.3311C103.152 21.3311 104.822 23.1211 104.822 25.9697C104.822 28.8262 103.161 30.6084 100.527 30.6084C97.8945 30.6084 96.2334 28.8262 96.2334 25.9697ZM102.929 25.9697C102.929 24.0156 102.033 22.8623 100.527 22.8623C99.0215 22.8623 98.1269 24.0244 98.1269 25.9697C98.1269 27.9316 99.0215 29.0762 100.527 29.0762C102.033 29.0762 102.929 27.9316 102.929 25.9697Z" fill="white"/>
<path d="M106.354 21.442H108.127V22.983H108.17C108.29 22.5017 108.572 22.0764 108.968 21.7785C109.365 21.4806 109.852 21.3284 110.348 21.3473C110.562 21.3465 110.775 21.3698 110.984 21.4166V23.1549C110.714 23.0723 110.432 23.0343 110.149 23.0426C109.879 23.0316 109.61 23.0792 109.36 23.1821C109.111 23.285 108.886 23.4408 108.702 23.6386C108.518 23.8365 108.379 24.0719 108.295 24.3286C108.21 24.5852 108.182 24.8571 108.213 25.1256V30.4957H106.354L106.354 21.442Z" fill="white"/>
<path d="M119.553 27.8369C119.303 29.4805 117.702 30.6084 115.654 30.6084C113.021 30.6084 111.386 28.8437 111.386 26.0127C111.386 23.1729 113.029 21.3311 115.576 21.3311C118.081 21.3311 119.656 23.0518 119.656 25.7969V26.4336H113.262V26.5459C113.232 26.8791 113.274 27.2148 113.384 27.5306C113.494 27.8464 113.67 28.1352 113.901 28.3778C114.131 28.6203 114.41 28.8111 114.72 28.9374C115.03 29.0637 115.363 29.1226 115.697 29.1103C116.136 29.1515 116.577 29.0498 116.954 28.8203C117.331 28.5909 117.623 28.246 117.788 27.8369L119.553 27.8369ZM113.271 25.1348H117.797C117.814 24.8352 117.768 24.5354 117.663 24.2541C117.559 23.9729 117.397 23.7164 117.189 23.5006C116.98 23.2849 116.729 23.1145 116.452 23.0003C116.174 22.8861 115.876 22.8305 115.576 22.8369C115.274 22.8351 114.974 22.8933 114.694 23.008C114.413 23.1227 114.159 23.2918 113.945 23.5054C113.73 23.7191 113.56 23.973 113.445 24.2527C113.329 24.5323 113.27 24.8321 113.271 25.1348Z" fill="white"/>
<path d="M47.9941 8.7304C48.3838 8.70244 48.7747 8.7613 49.1388 8.90274C49.5029 9.04417 49.8311 9.26465 50.0997 9.54828C50.3683 9.8319 50.5706 10.1716 50.692 10.5429C50.8134 10.9141 50.8509 11.3077 50.8018 11.6952C50.8018 13.6015 49.7715 14.6972 47.9941 14.6972H45.8389V8.7304H47.9941ZM46.7656 13.8534H47.8906C48.169 13.87 48.4476 13.8244 48.7062 13.7198C48.9647 13.6152 49.1967 13.4542 49.3852 13.2487C49.5737 13.0431 49.7139 12.7981 49.7958 12.5315C49.8777 12.2648 49.899 11.9833 49.8584 11.7074C49.8961 11.4326 49.8725 11.1528 49.7894 10.8881C49.7063 10.6235 49.5657 10.3805 49.3776 10.1765C49.1896 9.97261 48.9587 9.8128 48.7016 9.70856C48.4445 9.60433 48.1676 9.55824 47.8906 9.57361H46.7656V13.8534Z" fill="white"/>
<path d="M51.8489 12.4438C51.8206 12.1479 51.8545 11.8493 51.9483 11.5672C52.0421 11.2852 52.1939 11.0258 52.3938 10.8059C52.5938 10.5859 52.8375 10.4101 53.1093 10.2898C53.3812 10.1696 53.6752 10.1074 53.9724 10.1074C54.2697 10.1074 54.5637 10.1696 54.8356 10.2898C55.1074 10.4101 55.3511 10.5859 55.5511 10.8059C55.751 11.0258 55.9028 11.2852 55.9966 11.5672C56.0904 11.8493 56.1243 12.1479 56.096 12.4438C56.1248 12.74 56.0914 13.039 55.9978 13.3215C55.9042 13.6041 55.7525 13.8639 55.5525 14.0843C55.3525 14.3047 55.1086 14.4808 54.8365 14.6014C54.5644 14.7219 54.2701 14.7842 53.9724 14.7842C53.6748 14.7842 53.3805 14.7219 53.1084 14.6014C52.8362 14.4808 52.5924 14.3047 52.3924 14.0843C52.1924 13.8639 52.0407 13.6041 51.9471 13.3215C51.8535 13.039 51.8201 12.74 51.8489 12.4438ZM55.1819 12.4438C55.1819 11.4677 54.7434 10.8969 53.9739 10.8969C53.2015 10.8969 52.7669 11.4677 52.7669 12.4438C52.7669 13.4277 53.2015 13.9941 53.9739 13.9941C54.7435 13.9941 55.1819 13.4238 55.1819 12.4438Z" fill="white"/>
<path d="M61.7412 14.6973H60.8193L59.8887 11.3809H59.8184L58.8916 14.6973H57.9785L56.7373 10.1943H57.6387L58.4453 13.6303H58.5117L59.4375 10.1943H60.29L61.2158 13.6303H61.2861L62.0889 10.1943H62.9775L61.7412 14.6973Z" fill="white"/>
<path d="M64.0215 10.1939H64.877V10.9092H64.9434C65.056 10.6523 65.246 10.4369 65.4869 10.2931C65.7278 10.1493 66.0075 10.0842 66.2871 10.107C66.5062 10.0905 66.7262 10.1235 66.9308 10.2036C67.1354 10.2837 67.3194 10.4088 67.469 10.5697C67.6187 10.7305 67.7303 10.923 67.7955 11.1328C67.8607 11.3426 67.8779 11.5644 67.8457 11.7818V14.6968H66.957V12.0049C66.957 11.2813 66.6426 10.9214 65.9854 10.9214C65.8366 10.9145 65.6881 10.9398 65.55 10.9957C65.412 11.0515 65.2876 11.1365 65.1855 11.2449C65.0834 11.3533 65.0059 11.4825 64.9584 11.6236C64.9108 11.7647 64.8944 11.9145 64.9102 12.0625V14.6968H64.0215L64.0215 10.1939Z" fill="white"/>
<path d="M69.2617 8.43652H70.1504V14.6973H69.2617V8.43652Z" fill="white"/>
<path d="M71.386 12.4439C71.3577 12.1479 71.3916 11.8494 71.4854 11.5673C71.5793 11.2852 71.7311 11.0259 71.9311 10.8059C72.131 10.5859 72.3747 10.4101 72.6466 10.2898C72.9185 10.1696 73.2125 10.1074 73.5098 10.1074C73.8071 10.1074 74.1011 10.1696 74.3729 10.2898C74.6448 10.4101 74.8885 10.5859 75.0885 10.8059C75.2885 11.0259 75.4402 11.2852 75.5341 11.5673C75.628 11.8494 75.6618 12.1479 75.6336 12.4439C75.6624 12.7401 75.6289 13.0391 75.5353 13.3216C75.4416 13.6042 75.29 13.864 75.0899 14.0844C74.8899 14.3048 74.646 14.4809 74.3739 14.6014C74.1017 14.722 73.8074 14.7842 73.5098 14.7842C73.2121 14.7842 72.9178 14.722 72.6457 14.6014C72.3735 14.4809 72.1296 14.3048 71.9296 14.0844C71.7296 13.864 71.5779 13.6042 71.4843 13.3216C71.3907 13.0391 71.3572 12.7401 71.386 12.4439ZM74.719 12.4439C74.719 11.4678 74.2805 10.897 73.511 10.897C72.7385 10.897 72.304 11.4678 72.304 12.4439C72.304 13.4278 72.7386 13.9942 73.511 13.9942C74.2805 13.9942 74.719 13.4239 74.719 12.4439Z" fill="white"/>
<path d="M76.5684 13.4238C76.5684 12.6133 77.1719 12.146 78.2432 12.0796L79.4629 12.0093V11.6206C79.4629 11.145 79.1484 10.8765 78.541 10.8765C78.0449 10.8765 77.7012 11.0586 77.6025 11.377H76.7422C76.833 10.6035 77.5606 10.1074 78.582 10.1074C79.7109 10.1074 80.3477 10.6694 80.3477 11.6206V14.6973H79.4922V14.0645H79.4219C79.2792 14.2914 79.0788 14.4765 78.8411 14.6007C78.6035 14.7249 78.3372 14.7838 78.0693 14.7715C77.8803 14.7911 77.6892 14.7709 77.5085 14.7122C77.3277 14.6536 77.1613 14.5576 77.0199 14.4307C76.8784 14.3037 76.7652 14.1485 76.6874 13.9751C76.6097 13.8017 76.5691 13.6139 76.5684 13.4238ZM79.4629 13.0391V12.6626L78.3633 12.7329C77.7432 12.7744 77.4619 12.9853 77.4619 13.3823C77.4619 13.7876 77.8135 14.0234 78.2969 14.0234C78.4386 14.0378 78.5816 14.0235 78.7176 13.9814C78.8536 13.9393 78.9798 13.8703 79.0886 13.7784C79.1974 13.6866 79.2866 13.5738 79.3509 13.4468C79.4152 13.3198 79.4533 13.1811 79.4629 13.0391Z" fill="white"/>
<path d="M81.5156 12.4439C81.5156 11.021 82.2471 10.1196 83.3848 10.1196C83.6662 10.1067 83.9455 10.1741 84.19 10.314C84.4345 10.4539 84.6342 10.6605 84.7656 10.9096H84.832V8.43652H85.7207V14.6973H84.8691V13.9858H84.7988C84.6572 14.2333 84.4506 14.4374 84.2014 14.5758C83.9521 14.7143 83.6697 14.782 83.3848 14.7715C82.2393 14.7715 81.5156 13.8701 81.5156 12.4439ZM82.4336 12.4439C82.4336 13.3989 82.8838 13.9737 83.6368 13.9737C84.3858 13.9737 84.8487 13.3907 84.8487 12.4478C84.8487 11.5093 84.3809 10.918 83.6368 10.918C82.8887 10.918 82.4336 11.4966 82.4336 12.4439Z" fill="white"/>
<path d="M89.3977 12.4438C89.3694 12.1479 89.4033 11.8493 89.4971 11.5672C89.591 11.2852 89.7427 11.0258 89.9427 10.8059C90.1426 10.5859 90.3863 10.4101 90.6582 10.2898C90.93 10.1696 91.224 10.1074 91.5213 10.1074C91.8185 10.1074 92.1125 10.1696 92.3844 10.2898C92.6562 10.4101 92.8999 10.5859 93.0999 10.8059C93.2998 11.0258 93.4516 11.2852 93.5454 11.5672C93.6393 11.8493 93.6731 12.1479 93.6448 12.4438C93.6737 12.74 93.6402 13.039 93.5466 13.3215C93.453 13.6041 93.3014 13.8639 93.1014 14.0843C92.9014 14.3047 92.6575 14.4808 92.3854 14.6014C92.1132 14.7219 91.8189 14.7842 91.5213 14.7842C91.2237 14.7842 90.9293 14.7219 90.6572 14.6014C90.3851 14.4808 90.1412 14.3047 89.9412 14.0843C89.7412 13.8639 89.5895 13.6041 89.4959 13.3215C89.4023 13.039 89.3689 12.74 89.3977 12.4438ZM92.7307 12.4438C92.7307 11.4677 92.2923 10.8969 91.5227 10.8969C90.7503 10.8969 90.3157 11.4677 90.3157 12.4438C90.3157 13.4277 90.7503 13.9941 91.5227 13.9941C92.2923 13.9941 92.7307 13.4238 92.7307 12.4438Z" fill="white"/>
<path d="M94.8369 10.1939H95.6924V10.9092H95.7588C95.8715 10.6523 96.0615 10.4369 96.3023 10.2931C96.5432 10.1493 96.8229 10.0842 97.1025 10.107C97.3216 10.0905 97.5416 10.1235 97.7462 10.2036C97.9508 10.2837 98.1348 10.4088 98.2845 10.5697C98.4342 10.7305 98.5457 10.923 98.6109 11.1328C98.6761 11.3426 98.6933 11.5644 98.6611 11.7818V14.6968H97.7725V12.0049C97.7725 11.2813 97.458 10.9214 96.8008 10.9214C96.652 10.9145 96.5035 10.9398 96.3655 10.9957C96.2274 11.0515 96.1031 11.1365 96.0009 11.2449C95.8988 11.3533 95.8213 11.4825 95.7738 11.6236C95.7263 11.7647 95.7098 11.9145 95.7256 12.0625V14.6968H94.8369V10.1939Z" fill="white"/>
<path d="M103.683 9.07324V10.2148H104.658V10.9634H103.683V13.2788C103.683 13.7505 103.877 13.957 104.319 13.957C104.433 13.9567 104.546 13.9498 104.658 13.9365V14.6768C104.499 14.7053 104.337 14.7205 104.175 14.7222C103.187 14.7222 102.793 14.3745 102.793 13.5063V10.9633H102.078V10.2148H102.793V9.07324H103.683Z" fill="white"/>
<path d="M105.873 8.43652H106.754V10.918H106.824C106.942 10.6587 107.138 10.4421 107.383 10.2977C107.629 10.1534 107.913 10.0883 108.197 10.1113C108.415 10.0995 108.633 10.1359 108.835 10.2179C109.038 10.2999 109.219 10.4256 109.367 10.586C109.516 10.7463 109.626 10.9373 109.692 11.1455C109.758 11.3536 109.777 11.5737 109.748 11.79V14.6973H108.858V12.0093C108.858 11.29 108.523 10.9258 107.896 10.9258C107.743 10.9132 107.589 10.9342 107.445 10.9873C107.302 11.0404 107.171 11.1242 107.063 11.2329C106.955 11.3417 106.872 11.4727 106.82 11.6168C106.768 11.761 106.748 11.9147 106.762 12.0674V14.6973H105.873L105.873 8.43652Z" fill="white"/>
<path d="M114.929 13.4815C114.809 13.8931 114.547 14.249 114.19 14.4872C113.834 14.7253 113.405 14.8305 112.978 14.7842C112.682 14.7921 112.387 14.7353 112.114 14.6177C111.842 14.5002 111.598 14.3248 111.4 14.1036C111.202 13.8825 111.055 13.6209 110.968 13.3371C110.881 13.0533 110.858 12.754 110.898 12.46C110.859 12.1652 110.883 11.8652 110.969 11.5805C111.056 11.2959 111.203 11.0331 111.399 10.81C111.596 10.587 111.839 10.4088 112.11 10.2876C112.382 10.1664 112.677 10.105 112.974 10.1075C114.227 10.1075 114.983 10.9635 114.983 12.3775V12.6876H111.803V12.7374C111.789 12.9026 111.81 13.069 111.864 13.2257C111.918 13.3825 112.005 13.5262 112.118 13.6476C112.231 13.7691 112.368 13.8656 112.52 13.931C112.672 13.9964 112.837 14.0292 113.003 14.0274C113.215 14.0529 113.431 14.0146 113.621 13.9174C113.812 13.8202 113.97 13.6685 114.074 13.4815L114.929 13.4815ZM111.803 12.0303H114.078C114.089 11.8792 114.068 11.7274 114.017 11.5847C113.967 11.442 113.886 11.3115 113.782 11.2016C113.677 11.0918 113.551 11.005 113.411 10.9468C113.271 10.8886 113.121 10.8604 112.969 10.8638C112.816 10.8619 112.663 10.8908 112.521 10.9487C112.378 11.0067 112.249 11.0925 112.14 11.2012C112.032 11.3099 111.946 11.4393 111.888 11.5817C111.83 11.7241 111.801 11.8766 111.803 12.0303Z" fill="white"/>
</g>
</g>
<defs>
<clipPath id="clip0_4_7344">
<rect width="140" height="40" fill="white"/>
</clipPath>
<clipPath id="clip1_4_7344">
<rect width="119.664" height="40" fill="white" transform="translate(10.168)"/>
</clipPath>
</defs>
</svg>
