<svg width="30" height="30" viewBox="0 0 30 30" fill="none" xmlns="http://www.w3.org/2000/svg">
<path fill-rule="evenodd" clip-rule="evenodd" d="M24.1561 19.5454C24.1061 20.6424 23.9226 21.2384 23.7704 21.6343C23.5658 22.1591 23.3216 22.5344 22.9257 22.928C22.5344 23.3216 22.1591 23.5651 21.6343 23.7675C21.2384 23.9221 20.6401 24.1061 19.5432 24.1584C18.3572 24.2106 18.0059 24.2217 14.9986 24.2217C11.9941 24.2217 11.6399 24.2106 10.454 24.1584C9.35708 24.1061 8.76163 23.9221 8.36574 23.7675C7.83813 23.5651 7.46564 23.3216 7.072 22.928C6.67557 22.5344 6.43151 22.1591 6.22969 21.6343C6.07732 21.2384 5.8911 20.6424 5.84381 19.5454C5.78601 18.3595 5.77542 18.0026 5.77542 15.0014C5.77542 11.9941 5.78601 11.6399 5.84381 10.454C5.8911 9.35708 6.07732 8.76162 6.22969 8.3624C6.43151 7.83812 6.67557 7.46505 7.072 7.07141C7.46564 6.67836 7.83813 6.43426 8.36574 6.22969C8.76163 6.07457 9.35708 5.89331 10.454 5.84106C11.6399 5.78878 11.9941 5.77542 14.9986 5.77542C18.0059 5.77542 18.3572 5.78878 19.5432 5.84106C20.6401 5.89331 21.2384 6.07457 21.6343 6.22969C22.1591 6.43426 22.5344 6.67836 22.9257 7.07141C23.3216 7.46505 23.5658 7.83812 23.7704 8.3624C23.9226 8.76162 24.1061 9.35708 24.1561 10.454C24.2113 11.6399 24.2245 11.9941 24.2245 15.0014C24.2245 18.0026 24.2113 18.3595 24.1561 19.5454ZM26.1816 10.3617C26.1266 9.16301 25.9375 8.34406 25.6567 7.63076C25.371 6.89074 24.9879 6.26359 24.3608 5.63645C23.7364 5.01209 23.1092 4.62901 22.3692 4.33991C21.6531 4.06191 20.837 3.87064 19.6378 3.81839C18.4385 3.76055 18.0554 3.75 14.9986 3.75C11.9446 3.75 11.5588 3.76055 10.3595 3.81839C9.16301 3.87064 8.34739 4.06191 7.62796 4.33991C6.89074 4.62901 6.26359 5.01209 5.63924 5.63645C5.01209 6.26359 4.629 6.89074 4.34045 7.63076C4.06245 8.34406 3.87342 9.16301 3.81559 10.3617C3.76334 11.561 3.75 11.9446 3.75 15.0014C3.75 18.0554 3.76334 18.4385 3.81559 19.6378C3.87342 20.8342 4.06245 21.6526 4.34045 22.3692C4.629 23.1065 5.01209 23.7364 5.63924 24.3608C6.26359 24.9851 6.89074 25.371 7.62796 25.6595C8.34739 25.9375 9.16301 26.1266 10.3595 26.1816C11.5588 26.2366 11.9446 26.25 14.9986 26.25C18.0554 26.25 18.4385 26.2366 19.6378 26.1816C20.837 26.1266 21.6531 25.9375 22.3692 25.6595C23.1092 25.371 23.7364 24.9851 24.3608 24.3608C24.9879 23.7364 25.371 23.1065 25.6567 22.3692C25.9375 21.6526 26.1266 20.8342 26.1816 19.6378C26.2366 18.4385 26.25 18.0554 26.25 15.0014C26.25 11.9446 26.2366 11.561 26.1816 10.3617ZM22.3559 8.99508C22.3559 8.2473 21.7499 7.6435 21.0049 7.6435C20.2599 7.6435 19.6532 8.2473 19.6532 8.99508C19.6532 9.7401 20.2599 10.3439 21.0049 10.3439C21.7499 10.3439 22.3559 9.7401 22.3559 8.99508ZM11.2491 15.0014C11.2491 17.0712 12.9286 18.7481 14.9986 18.7481C17.0691 18.7481 18.7509 17.0712 18.7509 15.0014C18.7509 12.9281 17.0691 11.2491 14.9986 11.2491C12.9286 11.2491 11.2491 12.9281 11.2491 15.0014ZM9.22365 15.0014C9.22365 11.8106 11.8078 9.22089 14.9986 9.22089C18.1894 9.22089 20.7764 11.8106 20.7764 15.0014C20.7764 18.1894 18.1894 20.7764 14.9986 20.7764C11.8078 20.7764 9.22365 18.1894 9.22365 15.0014Z" fill="#D9D9D9"/>
</svg>
