<svg width="106" height="20" viewBox="0 0 106 20" fill="none" xmlns="http://www.w3.org/2000/svg">
<rect width="105.22" height="20" rx="4" fill="white"/>
<path fill-rule="evenodd" clip-rule="evenodd" d="M6.66634 4.66699C5.92996 4.66699 5.33301 5.26395 5.33301 6.00033V14.0003C5.33301 14.7367 5.92996 15.3337 6.66634 15.3337H13.333C14.0694 15.3337 14.6663 14.7367 14.6663 14.0003V12.1249C14.6663 12.0717 14.7257 12.0399 14.77 12.0694L17.6299 13.976C18.0729 14.2714 18.6663 13.9538 18.6663 13.4213V6.57934C18.6663 6.04687 18.0729 5.72928 17.6299 6.02464L14.77 7.93123C14.7257 7.96077 14.6663 7.92901 14.6663 7.87576V6.00033C14.6663 5.26395 14.0694 4.66699 13.333 4.66699H6.66634Z" fill="#707070"/>
<g clip-path="url(#clip0_49_27)">
<path d="M31.6699 9.5V9.96875C31.6699 10.6133 31.5859 11.1914 31.418 11.7031C31.25 12.2148 31.0098 12.6504 30.6973 13.0098C30.3887 13.3691 30.0176 13.6445 29.584 13.8359C29.1504 14.0234 28.6699 14.1172 28.1426 14.1172C27.6191 14.1172 27.1406 14.0234 26.707 13.8359C26.2773 13.6445 25.9043 13.3691 25.5879 13.0098C25.2715 12.6504 25.0254 12.2148 24.8496 11.7031C24.6777 11.1914 24.5918 10.6133 24.5918 9.96875V9.5C24.5918 8.85547 24.6777 8.2793 24.8496 7.77148C25.0215 7.25977 25.2637 6.82422 25.5762 6.46484C25.8926 6.10156 26.2656 5.82617 26.6953 5.63867C27.1289 5.44727 27.6074 5.35156 28.1309 5.35156C28.6582 5.35156 29.1387 5.44727 29.5723 5.63867C30.0059 5.82617 30.3789 6.10156 30.6914 6.46484C31.0039 6.82422 31.2441 7.25977 31.4121 7.77148C31.584 8.2793 31.6699 8.85547 31.6699 9.5ZM30.1992 9.96875V9.48828C30.1992 9.01172 30.1523 8.5918 30.0586 8.22852C29.9688 7.86133 29.834 7.55469 29.6543 7.30859C29.4785 7.05859 29.2617 6.87109 29.0039 6.74609C28.7461 6.61719 28.4551 6.55273 28.1309 6.55273C27.8066 6.55273 27.5176 6.61719 27.2637 6.74609C27.0098 6.87109 26.793 7.05859 26.6133 7.30859C26.4375 7.55469 26.3027 7.86133 26.209 8.22852C26.1152 8.5918 26.0684 9.01172 26.0684 9.48828V9.96875C26.0684 10.4453 26.1152 10.8672 26.209 11.2344C26.3027 11.6016 26.4395 11.9121 26.6191 12.166C26.8027 12.416 27.0215 12.6055 27.2754 12.7344C27.5293 12.8594 27.8184 12.9219 28.1426 12.9219C28.4707 12.9219 28.7617 12.8594 29.0156 12.7344C29.2695 12.6055 29.4844 12.416 29.6602 12.166C29.8359 11.9121 29.9688 11.6016 30.0586 11.2344C30.1523 10.8672 30.1992 10.4453 30.1992 9.96875ZM34.4004 9.01367V14H32.9883V7.66016H34.3184L34.4004 9.01367ZM34.1484 10.5957L33.6914 10.5898C33.6953 10.1406 33.7578 9.72852 33.8789 9.35352C34.0039 8.97852 34.1758 8.65625 34.3945 8.38672C34.6172 8.11719 34.8828 7.91016 35.1914 7.76562C35.5 7.61719 35.8438 7.54297 36.2227 7.54297C36.5273 7.54297 36.8027 7.58594 37.0488 7.67188C37.2988 7.75391 37.5117 7.88867 37.6875 8.07617C37.8672 8.26367 38.0039 8.50781 38.0977 8.80859C38.1914 9.10547 38.2383 9.4707 38.2383 9.9043V14H36.8203V9.89844C36.8203 9.59375 36.7754 9.35352 36.6855 9.17773C36.5996 8.99805 36.4727 8.87109 36.3047 8.79688C36.1406 8.71875 35.9355 8.67969 35.6895 8.67969C35.4473 8.67969 35.2305 8.73047 35.0391 8.83203C34.8477 8.93359 34.6855 9.07227 34.5527 9.24805C34.4238 9.42383 34.3242 9.62695 34.2539 9.85742C34.1836 10.0879 34.1484 10.334 34.1484 10.5957ZM41.1914 5V14H39.7734V5H41.1914ZM44.25 7.66016V14H42.832V7.66016H44.25ZM42.7383 5.99609C42.7383 5.78125 42.8086 5.60352 42.9492 5.46289C43.0938 5.31836 43.293 5.24609 43.5469 5.24609C43.7969 5.24609 43.9941 5.31836 44.1387 5.46289C44.2832 5.60352 44.3555 5.78125 44.3555 5.99609C44.3555 6.20703 44.2832 6.38281 44.1387 6.52344C43.9941 6.66406 43.7969 6.73438 43.5469 6.73438C43.293 6.73438 43.0938 6.66406 42.9492 6.52344C42.8086 6.38281 42.7383 6.20703 42.7383 5.99609ZM47.1973 9.01367V14H45.7852V7.66016H47.1152L47.1973 9.01367ZM46.9453 10.5957L46.4883 10.5898C46.4922 10.1406 46.5547 9.72852 46.6758 9.35352C46.8008 8.97852 46.9727 8.65625 47.1914 8.38672C47.4141 8.11719 47.6797 7.91016 47.9883 7.76562C48.2969 7.61719 48.6406 7.54297 49.0195 7.54297C49.3242 7.54297 49.5996 7.58594 49.8457 7.67188C50.0957 7.75391 50.3086 7.88867 50.4844 8.07617C50.6641 8.26367 50.8008 8.50781 50.8945 8.80859C50.9883 9.10547 51.0352 9.4707 51.0352 9.9043V14H49.6172V9.89844C49.6172 9.59375 49.5723 9.35352 49.4824 9.17773C49.3965 8.99805 49.2695 8.87109 49.1016 8.79688C48.9375 8.71875 48.7324 8.67969 48.4863 8.67969C48.2441 8.67969 48.0273 8.73047 47.8359 8.83203C47.6445 8.93359 47.4824 9.07227 47.3496 9.24805C47.2207 9.42383 47.1211 9.62695 47.0508 9.85742C46.9805 10.0879 46.9453 10.334 46.9453 10.5957ZM55.2715 14.1172C54.8027 14.1172 54.3789 14.041 54 13.8887C53.625 13.7324 53.3047 13.5156 53.0391 13.2383C52.7773 12.9609 52.5762 12.6348 52.4355 12.2598C52.2949 11.8848 52.2246 11.4805 52.2246 11.0469V10.8125C52.2246 10.3164 52.2969 9.86719 52.4414 9.46484C52.5859 9.0625 52.7871 8.71875 53.0449 8.43359C53.3027 8.14453 53.6074 7.92383 53.959 7.77148C54.3105 7.61914 54.6914 7.54297 55.1016 7.54297C55.5547 7.54297 55.9512 7.61914 56.291 7.77148C56.6309 7.92383 56.9121 8.13867 57.1348 8.41602C57.3613 8.68945 57.5293 9.01562 57.6387 9.39453C57.752 9.77344 57.8086 10.1914 57.8086 10.6484V11.252H52.9102V10.2383H56.4141V10.127C56.4062 9.87305 56.3555 9.63477 56.2617 9.41211C56.1719 9.18945 56.0332 9.00977 55.8457 8.87305C55.6582 8.73633 55.4082 8.66797 55.0957 8.66797C54.8613 8.66797 54.6523 8.71875 54.4688 8.82031C54.2891 8.91797 54.1387 9.06055 54.0176 9.24805C53.8965 9.43555 53.8027 9.66211 53.7363 9.92773C53.6738 10.1895 53.6426 10.4844 53.6426 10.8125V11.0469C53.6426 11.3242 53.6797 11.582 53.7539 11.8203C53.832 12.0547 53.9453 12.2598 54.0938 12.4355C54.2422 12.6113 54.4219 12.75 54.6328 12.8516C54.8438 12.9492 55.084 12.998 55.3535 12.998C55.6934 12.998 55.9961 12.9297 56.2617 12.793C56.5273 12.6562 56.7578 12.4629 56.9531 12.2129L57.6973 12.9336C57.5605 13.1328 57.3828 13.3242 57.1641 13.5078C56.9453 13.6875 56.6777 13.834 56.3613 13.9473C56.0488 14.0605 55.6855 14.1172 55.2715 14.1172ZM67.623 12.834V14H63.0938V12.834H67.623ZM63.5098 5.46875V14H62.0391V5.46875H63.5098ZM67.0312 9.03125V10.1797H63.0938V9.03125H67.0312ZM67.5938 5.46875V6.64062H63.0938V5.46875H67.5938ZM70.5938 12.8809L72.1465 7.66016H73.6113L71.4082 14H70.4941L70.5938 12.8809ZM69.4043 7.66016L70.9863 12.9043L71.0625 14H70.1484L67.9336 7.66016H69.4043ZM77.1973 14.1172C76.7285 14.1172 76.3047 14.041 75.9258 13.8887C75.5508 13.7324 75.2305 13.5156 74.9648 13.2383C74.7031 12.9609 74.502 12.6348 74.3613 12.2598C74.2207 11.8848 74.1504 11.4805 74.1504 11.0469V10.8125C74.1504 10.3164 74.2227 9.86719 74.3672 9.46484C74.5117 9.0625 74.7129 8.71875 74.9707 8.43359C75.2285 8.14453 75.5332 7.92383 75.8848 7.77148C76.2363 7.61914 76.6172 7.54297 77.0273 7.54297C77.4805 7.54297 77.877 7.61914 78.2168 7.77148C78.5566 7.92383 78.8379 8.13867 79.0605 8.41602C79.2871 8.68945 79.4551 9.01562 79.5645 9.39453C79.6777 9.77344 79.7344 10.1914 79.7344 10.6484V11.252H74.8359V10.2383H78.3398V10.127C78.332 9.87305 78.2812 9.63477 78.1875 9.41211C78.0977 9.18945 77.959 9.00977 77.7715 8.87305C77.584 8.73633 77.334 8.66797 77.0215 8.66797C76.7871 8.66797 76.5781 8.71875 76.3945 8.82031C76.2148 8.91797 76.0645 9.06055 75.9434 9.24805C75.8223 9.43555 75.7285 9.66211 75.6621 9.92773C75.5996 10.1895 75.5684 10.4844 75.5684 10.8125V11.0469C75.5684 11.3242 75.6055 11.582 75.6797 11.8203C75.7578 12.0547 75.8711 12.2598 76.0195 12.4355C76.168 12.6113 76.3477 12.75 76.5586 12.8516C76.7695 12.9492 77.0098 12.998 77.2793 12.998C77.6191 12.998 77.9219 12.9297 78.1875 12.793C78.4531 12.6562 78.6836 12.4629 78.8789 12.2129L79.623 12.9336C79.4863 13.1328 79.3086 13.3242 79.0898 13.5078C78.8711 13.6875 78.6035 13.834 78.2871 13.9473C77.9746 14.0605 77.6113 14.1172 77.1973 14.1172ZM82.2363 9.01367V14H80.8242V7.66016H82.1543L82.2363 9.01367ZM81.9844 10.5957L81.5273 10.5898C81.5312 10.1406 81.5938 9.72852 81.7148 9.35352C81.8398 8.97852 82.0117 8.65625 82.2305 8.38672C82.4531 8.11719 82.7188 7.91016 83.0273 7.76562C83.3359 7.61719 83.6797 7.54297 84.0586 7.54297C84.3633 7.54297 84.6387 7.58594 84.8848 7.67188C85.1348 7.75391 85.3477 7.88867 85.5234 8.07617C85.7031 8.26367 85.8398 8.50781 85.9336 8.80859C86.0273 9.10547 86.0742 9.4707 86.0742 9.9043V14H84.6562V9.89844C84.6562 9.59375 84.6113 9.35352 84.5215 9.17773C84.4355 8.99805 84.3086 8.87109 84.1406 8.79688C83.9766 8.71875 83.7715 8.67969 83.5254 8.67969C83.2832 8.67969 83.0664 8.73047 82.875 8.83203C82.6836 8.93359 82.5215 9.07227 82.3887 9.24805C82.2598 9.42383 82.1602 9.62695 82.0898 9.85742C82.0195 10.0879 81.9844 10.334 81.9844 10.5957ZM90.4219 7.66016V8.69141H86.8477V7.66016H90.4219ZM87.8789 6.10742H89.291V12.248C89.291 12.4434 89.3184 12.5938 89.373 12.6992C89.4316 12.8008 89.5117 12.8691 89.6133 12.9043C89.7148 12.9395 89.834 12.957 89.9707 12.957C90.0684 12.957 90.1621 12.9512 90.252 12.9395C90.3418 12.9277 90.4141 12.916 90.4688 12.9043L90.4746 13.9824C90.3574 14.0176 90.2207 14.0488 90.0645 14.0762C89.9121 14.1035 89.7363 14.1172 89.5371 14.1172C89.2129 14.1172 88.9258 14.0605 88.6758 13.9473C88.4258 13.8301 88.2305 13.6406 88.0898 13.3789C87.9492 13.1172 87.8789 12.7695 87.8789 12.3359V6.10742Z" fill="#707070"/>
</g>
<defs>
<clipPath id="clip0_49_27">
<rect width="73.22" height="16" fill="white" transform="translate(24 2)"/>
</clipPath>
</defs>
</svg>
