<svg width="21" height="20" viewBox="0 0 21 20" fill="none" xmlns="http://www.w3.org/2000/svg">
<g clip-path="url(#clip0_2_2343)">
<g clip-path="url(#clip1_2_2343)">
<g clip-path="url(#clip2_2_2343)">
<path fill-rule="evenodd" clip-rule="evenodd" d="M6.1843 2.68751L4.25307 5.08415C5.06068 5.50521 5.40802 6.58812 4.82221 7.42399L3.28025 9.62418H8.79283L7.25087 7.42399C6.61434 6.51574 7.07956 5.31582 8.03985 4.99025L6.1843 2.68751ZM9.89813 4.90572L6.57363 0.780027C6.37349 0.531658 5.9951 0.531658 5.79497 0.780027L2.47046 4.90572L2.46134 4.91704L2.30679 5.10884L1.91746 5.592C1.73999 5.81224 1.78757 6.10482 1.96584 6.27246C2.00873 6.3128 2.05918 6.3459 2.11589 6.36902C2.17352 6.39253 2.23762 6.40572 2.30679 6.40572H2.92729H3.17361H3.18815H3.36926H3.51195C3.59288 6.40572 3.64029 6.49684 3.59384 6.56311L3.51195 6.67996L2.79086 7.70887L2.6529 7.90572L1.44856 9.62418L1.44602 9.6278L1.35829 9.75297L0.948836 10.3372C0.716606 10.6686 0.953654 11.1241 1.35829 11.1241H2.07173H2.22458H2.22901H5.30712V13.8339C4.92691 13.7959 4.54123 13.7764 4.15101 13.7764C3.44817 13.7764 2.76007 13.8395 2.09206 13.9604C1.66285 14.038 1.41973 14.4833 1.5555 14.8978C1.67808 15.272 2.06769 15.4857 2.45586 15.4194C3.00631 15.3254 3.57259 15.2764 4.15101 15.2764C7.34934 15.2764 10.1983 16.7791 12.0279 19.1212C12.2362 19.3878 12.5863 19.5081 12.9078 19.4028C13.3826 19.2473 13.5834 18.6848 13.2797 18.2881C12.5986 17.3984 11.7903 16.6112 10.8821 15.9535C12.7031 14.0276 15.2822 12.8259 18.142 12.8259C18.6303 12.8259 19.1104 12.8609 19.58 12.9286C20.0529 12.9968 20.5006 12.6459 20.5006 12.1681C20.5006 11.8186 20.2558 11.5145 19.9104 11.4612C19.334 11.3721 18.7434 11.3259 18.142 11.3259C17.7586 11.3259 17.3796 11.3447 17.0058 11.3814V9.21914H18.6882H18.6926H18.8455H19.5589C19.9635 9.21914 20.2006 8.76355 19.9684 8.43218L19.5589 7.84794L19.4712 7.72277L19.4686 7.71914L18.8625 6.85429L18.7246 6.65744L18.0035 5.62853L17.9216 5.51168C17.8751 5.44541 17.9225 5.35429 18.0035 5.35429H18.1275H18.142H18.1462H18.3884H19.0089C19.1633 5.35429 19.2924 5.28852 19.3809 5.18909C19.4094 5.15704 19.4337 5.12149 19.4532 5.08352C19.538 4.91886 19.5336 4.70865 19.3982 4.54057L19.0089 4.05741L18.8543 3.86561L18.8452 3.85429L16.4112 0.833738C16.2111 0.585369 15.8327 0.585369 15.6325 0.833738L13.1986 3.85429L13.1894 3.86561L13.0349 4.05741L12.6456 4.54057C12.5769 4.62573 12.542 4.7217 12.5352 4.81709C12.5344 4.82831 12.534 4.83952 12.534 4.8507C12.5333 5.10965 12.7371 5.35429 13.0349 5.35429H13.6554H13.7982C13.8319 5.35429 13.8599 5.37013 13.8776 5.39341L13.8809 5.39811C13.9027 5.43038 13.9059 5.47486 13.8801 5.51168L13.7982 5.62853L13.0771 6.65744L13.0349 6.71767L12.9406 6.85223L12.333 7.71914L12.3305 7.72277L12.2428 7.84794L11.8333 8.43218C11.6011 8.76355 11.8381 9.21914 12.2428 9.21914H12.9562H13.1091H13.1135H15.5058V11.6297C13.2351 12.1628 11.224 13.3694 9.69479 15.0273C9.65859 15.0665 9.62785 15.1074 9.60227 15.1494C8.73198 14.6795 7.79417 14.3186 6.80712 14.085V11.1241H9.84408H9.84851H10.0014H10.7148C11.1194 11.1241 11.3564 10.6686 11.1242 10.3372L10.7148 9.75297L10.627 9.6278L10.6245 9.62418L9.42018 7.90572L9.28223 7.70887L8.56113 6.67996L8.47924 6.56311C8.4328 6.49684 8.48021 6.40572 8.56113 6.40572H8.70382H9.18045H9.19499H9.4413H9.96026H10.0618C10.1066 6.40572 10.1493 6.40018 10.1895 6.38988C10.5259 6.30366 10.6865 5.88418 10.4511 5.592L10.0618 5.10884L9.90725 4.91704L9.89813 4.90572ZM14.8261 4.22522L16.0219 2.74122L17.1268 4.11237C16.4176 4.57839 16.1413 5.5851 16.6932 6.37256L17.6369 7.71914H14.1647L15.1085 6.37256C15.6192 5.64377 15.4206 4.72719 14.8261 4.22522Z" fill="#31775A"/>
</g>
</g>
</g>
<defs>
<clipPath id="clip0_2_2343">
<rect width="20" height="20" fill="white" transform="translate(0.5)"/>
</clipPath>
<clipPath id="clip1_2_2343">
<rect width="20" height="20" fill="white" transform="translate(0.5)"/>
</clipPath>
<clipPath id="clip2_2_2343">
<rect width="20" height="20" fill="white" transform="translate(0.5)"/>
</clipPath>
</defs>
</svg>
