<svg width="21" height="20" viewBox="0 0 21 20" fill="none" xmlns="http://www.w3.org/2000/svg">
<g clip-path="url(#clip0_2_2350)">
<path fill-rule="evenodd" clip-rule="evenodd" d="M1.17773 17.2594C1.63284 17.4689 2.09631 17.6635 2.56749 17.8423C5.00026 18.7656 7.63873 19.2711 10.3953 19.2711C13.1528 19.2711 15.7922 18.7652 18.2257 17.8413C18.6968 17.6624 19.1602 17.4678 19.6153 17.2582L18.9029 15.9347L17.9662 14.1945L17.1895 12.7513L11.2486 1.71424L10.3968 0.131836L9.54508 1.71424L1.89016 15.9358L1.17773 17.2594ZM10.3968 3.29665L15.7784 13.2946C14.0875 13.8599 12.278 14.1661 10.397 14.1661C8.51586 14.1661 6.70628 13.8598 5.01536 13.2945L10.3968 3.29665ZM10.397 15.7997C8.23548 15.7997 6.16014 15.4309 4.23044 14.7528L3.28504 16.5092C5.49937 17.3251 7.89387 17.7711 10.3953 17.7711C12.8977 17.7711 15.2931 17.3248 17.5081 16.5082L16.5633 14.7529C14.6336 15.4309 12.5584 15.7997 10.397 15.7997ZM12.0003 12.0002C12.5526 12.0002 13.0003 11.5525 13.0003 11.0002C13.0003 10.4479 12.5526 10.0002 12.0003 10.0002C11.448 10.0002 11.0002 10.4479 11.0002 11.0002C11.0002 11.5525 11.448 12.0002 12.0003 12.0002ZM9.68702 12.0002C9.68702 12.5525 9.2393 13.0002 8.68702 13.0002C8.13473 13.0002 7.68702 12.5525 7.68702 12.0002C7.68702 11.4479 8.13473 11.0002 8.68702 11.0002C9.2393 11.0002 9.68702 11.4479 9.68702 12.0002ZM10.3259 9.00024C10.8782 9.00024 11.326 8.55253 11.326 8.00024C11.326 7.44795 10.8782 7.00024 10.3259 7.00024C9.77365 7.00024 9.32593 7.44795 9.32593 8.00024C9.32593 8.55253 9.77365 9.00024 10.3259 9.00024Z" fill="#7A1D47"/>
</g>
<defs>
<clipPath id="clip0_2_2350">
<rect width="19" height="20" fill="white" transform="translate(1)"/>
</clipPath>
</defs>
</svg>
