<svg width="21" height="20" viewBox="0 0 21 20" fill="none" xmlns="http://www.w3.org/2000/svg">
<g clip-path="url(#clip0_2_2355)">
<g clip-path="url(#clip1_2_2355)">
<path fill-rule="evenodd" clip-rule="evenodd" d="M6.48055 2.23279L7.4342 3.25464C7.47739 3.28616 7.51863 3.32209 7.55738 3.36256L8.9404 4.8067L10.0873 2.23278L6.48055 2.23279ZM4.76999 2.39852L6.0178 3.73557L2.00999 12.4472C1.85335 12.7876 1.92171 13.1894 2.18214 13.4588L3.52487 14.8484C3.54528 14.8774 3.56821 14.9052 3.59371 14.9315L7.2598 18.7116C7.55942 19.0205 7.97144 19.1948 8.40182 19.1948H13.2446C13.5852 19.1948 13.8673 18.9453 13.9183 18.619C14.0173 18.5562 14.1065 18.4725 14.1789 18.3679L18.8745 11.5877C19.2624 11.0276 18.9176 10.277 18.2787 10.1731L17.1855 6.81745C16.9894 6.21569 16.2538 5.9934 15.7573 6.3859L11.3023 9.90783C11.2073 9.98283 11.1333 10.0687 11.0783 10.161H8.15996C8.12417 10.161 8.08913 10.1629 8.05489 10.1667L9.7102 6.42452C9.73917 6.35902 9.7599 6.29137 9.77262 6.22294C9.81751 6.16549 9.85647 6.10123 9.88802 6.03039L11.6178 2.14823C11.8857 1.54697 11.4456 0.869138 10.7874 0.869141L5.43461 0.869163C4.63973 0.869167 4.22766 1.8174 4.76999 2.39852ZM12.2652 17.8312L7.44227 11.6281C7.43496 11.6187 7.42788 11.6093 7.42101 11.5997L5.80509 15.2529L8.23868 17.7622C8.28148 17.8063 8.34034 17.8312 8.40182 17.8312H12.2652ZM3.37871 12.7347L7.0232 4.81287L8.31821 6.20049L4.78441 14.1895L3.37871 12.7347ZM9.08913 11.5246L13.4103 17.0826L17.2557 11.5301H11.866C11.8305 11.5301 11.7958 11.5282 11.762 11.5246H9.08913ZM16.8406 10.161H13.1808L16.0911 7.86034L16.8406 10.161Z" fill="#FFAD43"/>
</g>
</g>
<defs>
<clipPath id="clip0_2_2355">
<rect width="20" height="20" fill="white" transform="translate(0.5)"/>
</clipPath>
<clipPath id="clip1_2_2355">
<rect width="18.1818" height="20" fill="white" transform="translate(1.40918)"/>
</clipPath>
</defs>
</svg>
