<svg width="21" height="20" viewBox="0 0 21 20" fill="none" xmlns="http://www.w3.org/2000/svg">
<g clip-path="url(#clip0_2_2374)">
<g clip-path="url(#clip1_2_2374)">
<path fill-rule="evenodd" clip-rule="evenodd" d="M15.936 9.49228H17.1463C18.3827 9.49228 19.3529 10.5527 19.2434 11.7843L18.5905 19.1172C18.5542 19.5245 18.2131 19.8367 17.8041 19.8367C17.3405 19.8367 16.9766 19.439 17.0178 18.9772L17.6706 11.6443C17.698 11.3364 17.4555 11.0712 17.1463 11.0712H2.801C2.49189 11.0712 2.24935 11.3364 2.27676 11.6443L2.92957 18.9772C2.97067 19.439 2.60685 19.8367 2.1432 19.8367C1.73432 19.8367 1.39309 19.5245 1.35684 19.1172L0.704027 11.7843C0.594392 10.5527 1.5646 9.49228 2.801 9.49228H3.90922C3.80382 8.7406 3.75041 8.03174 3.75041 7.40746C3.75041 6.99176 3.77409 6.58426 3.82104 6.18776H1.28947C0.853459 6.18776 0.5 5.83431 0.5 5.39829C0.5 4.96228 0.853459 4.60882 1.28947 4.60882H3.92105C3.99706 4.60882 4.07057 4.61956 4.14013 4.63962C4.93196 2.02291 6.91295 0.182617 9.92262 0.182617C12.9453 0.182617 14.9303 2.03874 15.7153 4.67335C15.8113 4.63184 15.9172 4.60882 16.0284 4.60882H18.66C19.096 4.60882 19.4495 4.96228 19.4495 5.39829C19.4495 5.83431 19.096 6.18776 18.66 6.18776H16.0284L16.0242 6.18775C16.0712 6.58426 16.0948 6.99175 16.0948 7.40746C16.0948 8.03174 16.0415 8.7406 15.936 9.49228ZM14.3403 9.49228C14.4567 8.73123 14.5159 8.01795 14.5159 7.40746C14.5159 5.68244 14.0427 4.24994 13.2714 3.28412C12.5309 2.35717 11.4445 1.76156 9.92262 1.76156C8.40072 1.76156 7.31429 2.35717 6.57393 3.28412C5.80251 4.24994 5.32936 5.68244 5.32936 7.40746C5.32936 8.01795 5.38847 8.73123 5.50497 9.49228H14.3403ZM8.77868 6.16445C8.77868 6.45512 8.54304 6.69076 8.25237 6.69076C7.96168 6.69076 7.72605 6.45512 7.72605 6.16445C7.72605 5.87378 7.96168 5.63813 8.25237 5.63813C8.54304 5.63813 8.77868 5.87378 8.77868 6.16445ZM9.83132 6.16445C9.83132 7.03648 9.12439 7.7434 8.25237 7.7434C7.38034 7.7434 6.67342 7.03648 6.67342 6.16445C6.67342 5.29242 7.38034 4.5855 8.25237 4.5855C9.12439 4.5855 9.83132 5.29242 9.83132 6.16445ZM11.6971 6.69076C11.9877 6.69076 12.2234 6.45512 12.2234 6.16445C12.2234 5.87378 11.9877 5.63813 11.6971 5.63813C11.4064 5.63813 11.1707 5.87378 11.1707 6.16445C11.1707 6.45512 11.4064 6.69076 11.6971 6.69076ZM11.6971 7.7434C12.5691 7.7434 13.276 7.03648 13.276 6.16445C13.276 5.29242 12.5691 4.5855 11.6971 4.5855C10.825 4.5855 10.1181 5.29242 10.1181 6.16445C10.1181 7.03648 10.825 7.7434 11.6971 7.7434ZM5.88292 15.2633V14.2107H9.04081V15.2633H5.88292ZM4.30397 13.158C4.30397 12.8674 4.53961 12.6317 4.83028 12.6317H10.0934C10.3841 12.6317 10.6198 12.8674 10.6198 13.158V16.3159C10.6198 16.6066 10.3841 16.8423 10.0934 16.8423H4.83028C4.53961 16.8423 4.30397 16.6066 4.30397 16.3159V13.158ZM11.4328 13.5988C11.4328 13.1628 11.7863 12.8093 12.2223 12.8093H14.8539C15.2899 12.8093 15.6434 13.1628 15.6434 13.5988C15.6434 14.0348 15.2899 14.3883 14.8539 14.3883H12.2223C11.7863 14.3883 11.4328 14.0348 11.4328 13.5988ZM12.2223 14.9598C11.7863 14.9598 11.4328 15.3133 11.4328 15.7493C11.4328 16.1853 11.7863 16.5388 12.2223 16.5388H14.8539C15.2899 16.5388 15.6434 16.1853 15.6434 15.7493C15.6434 15.3133 15.2899 14.9598 14.8539 14.9598H12.2223Z" fill="#7A1D47"/>
</g>
</g>
<defs>
<clipPath id="clip0_2_2374">
<rect width="20" height="20" fill="white" transform="translate(0.5)"/>
</clipPath>
<clipPath id="clip1_2_2374">
<rect width="20" height="20" fill="white" transform="translate(0.5)"/>
</clipPath>
</defs>
</svg>
