<svg width="21" height="20" viewBox="0 0 21 20" fill="none" xmlns="http://www.w3.org/2000/svg">
<g clip-path="url(#clip0_2_2380)">
<g clip-path="url(#clip1_2_2380)">
<path fill-rule="evenodd" clip-rule="evenodd" d="M6.51855 14.6421C6.51855 14.6421 6.51856 14.6422 6.51855 14.6421C7.00641 14.8105 7.51755 14.9188 8.04083 14.9604C8.04082 14.9604 8.04084 14.9604 8.04083 14.9604C7.51755 14.9188 7.00641 14.8105 6.51855 14.6421ZM8.90627 14.9682C8.90625 14.9682 8.90628 14.9682 8.90627 14.9682V14.9682ZM11.0423 19.7197C8.96294 19.1626 7.41583 17.6104 6.77605 15.7127C7.30727 15.8479 7.85749 15.9228 8.41682 15.9316C9.01123 17.0775 10.0668 17.9794 11.4121 18.3398C13.9524 19.0205 16.5636 17.513 17.2443 14.9727L18.6 9.91307C18.668 9.65907 18.5173 9.39793 18.2632 9.32987L15.6754 8.63646C15.6642 8.12919 15.5985 7.61579 15.474 7.10352L18.6329 7.94997C19.6491 8.22224 20.2521 9.2667 19.9799 10.2828L18.6242 15.3424C17.7392 18.6449 14.3447 20.6046 11.0423 19.7197ZM10.0523 15.7888C9.81827 16.0229 9.46209 16.0605 9.18874 15.9016C9.48522 15.8739 9.78296 15.8274 10.0805 15.7611C10.0711 15.7702 10.0617 15.7794 10.0523 15.7888ZM12.3523 15.1725C12.1992 15.1315 12.0431 15.106 11.8863 15.0961C12.4351 14.805 12.9356 14.4472 13.3801 14.0358C13.768 14.2214 14.1232 14.4721 14.4297 14.7786C14.9025 15.2514 15.2426 15.8404 15.4157 16.4864C15.5178 16.8674 15.2917 17.2591 14.9106 17.3612C14.5296 17.4633 14.1379 17.2372 14.0358 16.8561C13.9276 16.4524 13.7151 16.0843 13.4196 15.7888C13.1241 15.4933 12.7559 15.2807 12.3523 15.1725ZM14.2138 13.4034C14.1716 13.3613 14.1314 13.3172 14.0936 13.2714C14.4326 12.8501 14.7229 12.3919 14.9587 11.9063C15.0235 11.9836 15.0728 12.076 15.1007 12.1798C15.1223 12.2606 15.1648 12.3342 15.224 12.3934C15.283 12.4524 15.3566 12.495 15.4374 12.5166C15.5182 12.5382 15.6032 12.5382 15.6839 12.5166C15.7646 12.495 15.8383 12.4524 15.8974 12.3934C16.1763 12.1144 16.6285 12.1144 16.9075 12.3934C17.1864 12.6723 17.1864 13.1245 16.9075 13.4034C16.6711 13.6399 16.3766 13.8099 16.0537 13.8965C15.7307 13.983 15.3906 13.983 15.0677 13.8965C14.7447 13.8099 14.4503 13.6399 14.2138 13.4034Z" fill="#FFAD43"/>
<path fill-rule="evenodd" clip-rule="evenodd" d="M11.1932 2.15816L2.91382 4.37661C2.65979 4.44467 2.50904 4.70579 2.57711 4.95983L3.93283 10.0194C4.6135 12.5597 7.22463 14.0673 9.76494 13.3866C12.3052 12.7059 13.8128 10.0948 13.1321 7.55449L11.7764 2.49488C11.7084 2.24084 11.4472 2.09009 11.1932 2.15816ZM2.54409 2.99671C1.52795 3.26899 0.924942 4.31344 1.19721 5.32956L2.55293 10.3892C3.43781 13.6915 6.83228 15.6513 10.1347 14.7665C13.4371 13.8816 15.3968 10.4872 14.512 7.18475L13.1563 2.12514C12.884 1.10901 11.8396 0.505997 10.8234 0.778267L2.54409 2.99671Z" fill="#FFAD43"/>
<path fill-rule="evenodd" clip-rule="evenodd" d="M5.49343 6.64401C5.43302 6.6602 5.3764 6.68813 5.32679 6.72619C5.27718 6.76426 5.23555 6.81173 5.20428 6.86589C5.17301 6.92004 5.15272 6.97982 5.14456 7.04182C5.13639 7.10382 5.14053 7.16682 5.15671 7.22722C5.25881 7.60827 5.03268 7.99995 4.65163 8.10204C4.27059 8.20415 3.87892 7.97801 3.77681 7.59697C3.71208 7.35536 3.69556 7.10336 3.72821 6.85536C3.76086 6.60737 3.84203 6.36822 3.9671 6.1516C4.09218 5.93498 4.25868 5.74511 4.45713 5.59283C4.65558 5.44056 4.88207 5.32886 5.12369 5.26412C5.3653 5.19938 5.6173 5.18286 5.8653 5.21552C6.1133 5.24817 6.35243 5.32934 6.56906 5.45441C6.78568 5.57948 6.97556 5.74598 7.12782 5.94443C7.2801 6.14288 7.39179 6.36938 7.45654 6.61099C7.55863 6.99204 7.33251 7.38371 6.95146 7.48581C6.57041 7.58791 6.17874 7.36178 6.07664 6.98074C6.06045 6.92033 6.03253 6.86371 5.99446 6.81409C5.95639 6.76448 5.90893 6.72285 5.85478 6.69158C5.80061 6.66032 5.74083 6.64002 5.67883 6.63186C5.61683 6.6237 5.55383 6.62783 5.49343 6.64401Z" fill="#FFAD43"/>
<path fill-rule="evenodd" clip-rule="evenodd" d="M10.0931 5.4116C9.97105 5.44428 9.86704 5.52409 9.80389 5.63347C9.74075 5.74284 9.72363 5.87282 9.75632 5.99482C9.85842 6.37585 9.63229 6.76753 9.25124 6.86962C8.8702 6.97173 8.47853 6.7456 8.37643 6.36455C8.24568 5.8766 8.31413 5.35667 8.56672 4.91919C8.8193 4.48169 9.23534 4.16245 9.7233 4.0317C10.2112 3.90096 10.7311 3.96941 11.1687 4.222C11.6062 4.47458 11.9254 4.89061 12.0561 5.37858C12.1583 5.75962 11.9321 6.15129 11.5511 6.2534C11.17 6.35549 10.7784 6.12937 10.6763 5.74832C10.6435 5.62633 10.5637 5.52232 10.4544 5.45917C10.3451 5.39602 10.2151 5.37891 10.0931 5.4116Z" fill="#FFAD43"/>
<path fill-rule="evenodd" clip-rule="evenodd" d="M5.25608 9.88759C5.53503 9.60864 5.98729 9.60864 6.26623 9.88759C6.62087 10.2422 7.06262 10.4972 7.54705 10.627C8.0315 10.7568 8.54158 10.7568 9.02603 10.627C9.51046 10.4972 9.95221 10.2422 10.3068 9.88759C10.6615 9.53292 10.9165 9.09118 11.0463 8.60674C11.1484 8.22569 11.5401 7.99956 11.9211 8.10167C12.3021 8.20376 12.5283 8.59543 12.4262 8.97648C12.2315 9.70311 11.8489 10.3658 11.317 10.8977C10.785 11.4297 10.1224 11.8123 9.39576 12.0069C8.6691 12.2017 7.90398 12.2017 7.17731 12.0069C6.45064 11.8123 5.78803 11.4297 5.25608 10.8977C4.97714 10.6187 4.97714 10.1665 5.25608 9.88759Z" fill="#FFAD43"/>
</g>
</g>
<defs>
<clipPath id="clip0_2_2380">
<rect width="20" height="20" fill="white" transform="translate(0.5)"/>
</clipPath>
<clipPath id="clip1_2_2380">
<rect width="20" height="20" fill="white" transform="translate(0.5)"/>
</clipPath>
</defs>
</svg>
