<svg width="21" height="20" viewBox="0 0 21 20" fill="none" xmlns="http://www.w3.org/2000/svg">
<g clip-path="url(#clip0_2_2390)">
<g clip-path="url(#clip1_2_2390)">
<path d="M18.2775 0.833008H2.7219C1.95483 0.833008 1.33301 1.45483 1.33301 2.2219V17.7775C1.33301 18.5445 1.95483 19.1663 2.7219 19.1663H18.2775C19.0445 19.1663 19.6663 18.5445 19.6663 17.7775V2.2219C19.6663 1.45483 19.0445 0.833008 18.2775 0.833008Z" stroke="#008294" stroke-width="1.66667"/>
<path d="M10.5036 11.6663C11.4241 11.6663 12.1702 10.9201 12.1702 9.99967C12.1702 9.0792 11.4241 8.33301 10.5036 8.33301C9.58311 8.33301 8.83691 9.0792 8.83691 9.99967C8.83691 10.9201 9.58311 11.6663 10.5036 11.6663Z" fill="#008294"/>
<path d="M14.9333 16.1038C15.8537 16.1038 16.5999 15.3576 16.5999 14.4372C16.5999 13.5167 15.8537 12.7705 14.9333 12.7705C14.0128 12.7705 13.2666 13.5167 13.2666 14.4372C13.2666 15.3576 14.0128 16.1038 14.9333 16.1038Z" fill="#008294"/>
<path d="M6.06706 7.22982C6.98753 7.22982 7.73372 6.48363 7.73372 5.56315C7.73372 4.64268 6.98753 3.89648 6.06706 3.89648C5.14658 3.89648 4.40039 4.64268 4.40039 5.56315C4.40039 6.48363 5.14658 7.22982 6.06706 7.22982Z" fill="#008294"/>
</g>
</g>
<defs>
<clipPath id="clip0_2_2390">
<rect width="20" height="20" fill="white" transform="translate(0.5)"/>
</clipPath>
<clipPath id="clip1_2_2390">
<rect width="20" height="20" fill="white" transform="translate(0.5)"/>
</clipPath>
</defs>
</svg>
